Linefont[min,max].ufo
<glyph name="neg.-1" format="2">
	<advance width="200"/>
	<outline>
		<contour>
			<point x="-99.975" y="0.499" type="line"/>
			<point x="100.025" y="-9.501" type="line"/>
			<point x="99.975" y="-10.499" type="line"/>
			<point x="-100.025" y="-0.499" type="line"/>
		</contour>
	</outline>
</glyph>
<glyph name="neg.-10" format="2">
	<advance width="200"/>
	<outline>
		<contour>
			<point x="-98.211" y="3.578" type="line"/>
			<point x="101.789" y="-96.422" type="line"/>
			<point x="98.211" y="-103.578" type="line"/>
			<point x="-101.789" y="-3.578" type="line"/>
		</contour>
	</outline>
</glyph>
<glyph name="neg.-100" format="2">
	<advance width="200"/>
	<outline>
		<contour>
			<point x="-99.51" y="0.098" type="line"/>
			<point x="100.49" y="-999.902" type="line"/>
			<point x="99.51" y="-1000.098" type="line"/>
			<point x="-100.49" y="-0.098" type="line"/>
		</contour>
	</outline>
</glyph>
<glyph name="neg.-101" format="2">
	<advance width="200"/>
	<outline>
		<contour>
			<point x="-99.51" y="0.097" type="line"/>
			<point x="100.49" y="-1009.903" type="line"/>
			<point x="99.51" y="-1010.097" type="line"/>
			<point x="-100.49" y="-0.097" type="line"/>
		</contour>
	</outline>
</glyph>
<glyph name="neg.-102" format="2">
	<advance width="200"/>
	<outline>
		<contour>
			<point x="-96.075" y="0.77" type="line"/>
			<point x="103.925" y="-1019.23" type="line"/>
			<point x="96.075" y="-1020.77" type="line"/>
			<point x="-103.925" y="-0.77" type="line"/>
		</contour>
	</outline>
</glyph>
<glyph name="neg.-104" format="2">
	<advance width="200"/>
	<outline>
		<contour>
			<point x="-96.072" y="0.755" type="line"/>
			<point x="103.928" y="-1039.245" type="line"/>
			<point x="96.072" y="-1040.755" type="line"/>
			<point x="-103.928" y="-0.755" type="line"/>
		</contour>
	</outline>
</glyph>
<glyph name="neg.-107" format="2">
	<advance width="200"/>
	<outline>
		<contour>
			<point x="-96.068" y="0.735" type="line"/>
			<point x="103.932" y="-1069.265" type="line"/>
			<point x="96.068" y="-1070.735" type="line"/>
			<point x="-103.932" y="-0.735" type="line"/>
		</contour>
	</outline>
</glyph>
<glyph name="neg.-108" format="2">
	<advance width="200"/>
	<outline>
		<contour>
			<point x="-99.508" y="0.091" type="line"/>
			<point x="100.492" y="-1079.909" type="line"/>
			<point x="99.508" y="-1080.091" type="line"/>
			<point x="-100.492" y="-0.091" type="line"/>
		</contour>
	</outline>
</glyph>
<glyph name="neg.-109" format="2">
	<advance width="200"/>
	<outline>
		<contour>
			<point x="-96.066" y="0.722" type="line"/>
			<point x="103.934" y="-1089.278" type="line"/>
			<point x="96.066" y="-1090.722" type="line"/>
			<point x="-103.934" y="-0.722" type="line"/>
		</contour>
	</outline>
</glyph>
<glyph name="neg.-11" format="2">
	<advance width="200"/>
	<outline>
		<contour>
			<point x="-99.759" y="0.438" type="line"/>
			<point x="100.241" y="-109.562" type="line"/>
			<point x="99.759" y="-110.438" type="line"/>
			<point x="-100.241" y="-0.438" type="line"/>
		</contour>
	</outline>
</glyph>
<glyph name="neg.-110" format="2">
	<advance width="200"/>
	<outline>
		<contour>
			<point x="-99.508" y="0.089" type="line"/>
			<point x="100.492" y="-1099.911" type="line"/>
			<point x="99.508" y="-1100.089" type="line"/>
			<point x="-100.492" y="-0.089" type="line"/>
		</contour>
	</outline>
</glyph>
<glyph name="neg.-111" format="2">
	<advance width="200"/>
	<outline>
		<contour>
			<point x="-99.508" y="0.089" type="line"/>
			<point x="100.492" y="-1109.911" type="line"/>
			<point x="99.508" y="-1110.089" type="line"/>
			<point x="-100.492" y="-0.089" type="line"/>
		</contour>
	</outline>
</glyph>
<glyph name="neg.-112" format="2">
	<advance width="200"/>
	<outline>
		<contour>
			<point x="-96.062" y="0.703" type="line"/>
			<point x="103.938" y="-1119.297" type="line"/>
			<point x="96.062" y="-1120.703" type="line"/>
			<point x="-103.938" y="-0.703" type="line"/>
		</contour>
	</outline>
</glyph>
<glyph name="neg.-113" format="2">
	<advance width="200"/>
	<outline>
		<contour>
			<point x="-96.061" y="0.697" type="line"/>
			<point x="103.939" y="-1129.303" type="line"/>
			<point x="96.061" y="-1130.697" type="line"/>
			<point x="-103.939" y="-0.697" type="line"/>
		</contour>
	</outline>
</glyph>
<glyph name="neg.-116" format="2">
	<advance width="200"/>
	<outline>
		<contour>
			<point x="-99.507" y="0.085" type="line"/>
			<point x="100.493" y="-1159.915" type="line"/>
			<point x="99.507" y="-1160.085" type="line"/>
			<point x="-100.493" y="-0.085" type="line"/>
		</contour>
	</outline>
</glyph>
<glyph name="neg.-117" format="2">
	<advance width="200"/>
	<outline>
		<contour>
			<point x="-99.507" y="0.084" type="line"/>
			<point x="100.493" y="-1169.916" type="line"/>
			<point x="99.507" y="-1170.084" type="line"/>
			<point x="-100.493" y="-0.084" type="line"/>
		</contour>
	</outline>
</glyph>
<glyph name="neg.-118" format="2">
	<advance width="200"/>
	<outline>
		<contour>
			<point x="-96.056" y="0.668" type="line"/>
			<point x="103.944" y="-1179.332" type="line"/>
			<point x="96.056" y="-1180.668" type="line"/>
			<point x="-103.944" y="-0.668" type="line"/>
		</contour>
	</outline>
</glyph>
<glyph name="neg.-120" format="2">
	<advance width="200"/>
	<outline>
		<contour>
			<point x="-96.054" y="0.658" type="line"/>
			<point x="103.946" y="-1199.342" type="line"/>
			<point x="96.054" y="-1200.658" type="line"/>
			<point x="-103.946" y="-0.658" type="line"/>
		</contour>
	</outline>
</glyph>
<glyph name="neg.-122" format="2">
	<advance width="200"/>
	<outline>
		<contour>
			<point x="-99.507" y="0.081" type="line"/>
			<point x="100.493" y="-1219.919" type="line"/>
			<point x="99.507" y="-1220.081" type="line"/>
			<point x="-100.493" y="-0.081" type="line"/>
		</contour>
	</outline>
</glyph>
<glyph name="neg.-123" format="2">
	<advance width="200"/>
	<outline>
		<contour>
			<point x="-97.532" y="0.401" type="line"/>
			<point x="102.468" y="-1229.599" type="line"/>
			<point x="97.532" y="-1230.401" type="line"/>
			<point x="-102.468" y="-0.401" type="line"/>
		</contour>
	</outline>
</glyph>
<glyph name="neg.-124" format="2">
	<advance width="200"/>
	<outline>
		<contour>
			<point x="-96.051" y="0.637" type="line"/>
			<point x="103.949" y="-1239.363" type="line"/>
			<point x="96.051" y="-1240.637" type="line"/>
			<point x="-103.949" y="-0.637" type="line"/>
		</contour>
	</outline>
</glyph>
<glyph name="neg.-125" format="2">
	<advance width="200"/>
	<outline>
		<contour>
			<point x="-99.506" y="0.079" type="line"/>
			<point x="100.494" y="-1249.921" type="line"/>
			<point x="99.506" y="-1250.079" type="line"/>
			<point x="-100.494" y="-0.079" type="line"/>
		</contour>
	</outline>
</glyph>
<glyph name="neg.-126" format="2">
	<advance width="200"/>
	<outline>
		<contour>
			<point x="-96.049" y="0.627" type="line"/>
			<point x="103.951" y="-1259.373" type="line"/>
			<point x="96.049" y="-1260.627" type="line"/>
			<point x="-103.951" y="-0.627" type="line"/>
		</contour>
	</outline>
</glyph>
<glyph name="neg.-127" format="2">
	<advance width="200"/>
	<outline>
		<contour>
			<point x="-96.049" y="0.622" type="line"/>
			<point x="103.951" y="-1269.378" type="line"/>
			<point x="96.049" y="-1270.622" type="line"/>
			<point x="-103.951" y="-0.622" type="line"/>
		</contour>
	</outline>
</glyph>
<glyph name="neg.-13" format="2">
	<advance width="200"/>
	<outline>
		<contour>
			<point x="-97.82" y="3.354" type="line"/>
			<point x="102.18" y="-126.646" type="line"/>
			<point x="97.82" y="-133.354" type="line"/>
			<point x="-102.18" y="-3.354" type="line"/>
		</contour>
	</outline>
</glyph>
<glyph name="neg.-14" format="2">
	<advance width="200"/>
	<outline>
		<contour>
			<point x="-98.566" y="2.048" type="line"/>
			<point x="101.434" y="-137.952" type="line"/>
			<point x="98.566" y="-142.048" type="line"/>
			<point x="-101.434" y="-2.048" type="line"/>
		</contour>
	</outline>
</glyph>
<glyph name="neg.-15" format="2">
	<advance width="200"/>
	<outline>
		<contour>
			<point x="-99.7" y="0.4" type="line"/>
			<point x="100.3" y="-149.6" type="line"/>
			<point x="99.7" y="-150.4" type="line"/>
			<point x="-100.3" y="-0.4" type="line"/>
		</contour>
	</outline>
</glyph>
<glyph name="neg.-16" format="2">
	<advance width="200"/>
	<outline>
		<contour>
			<point x="-98.438" y="1.952" type="line"/>
			<point x="101.562" y="-158.048" type="line"/>
			<point x="98.438" y="-161.952" type="line"/>
			<point x="-101.562" y="-1.952" type="line"/>
		</contour>
	</outline>
</glyph>
<glyph name="neg.-17" format="2">
	<advance width="200"/>
	<outline>
		<contour>
			<point x="-99.676" y="0.381" type="line"/>
			<point x="100.324" y="-169.619" type="line"/>
			<point x="99.676" y="-170.381" type="line"/>
			<point x="-100.324" y="-0.381" type="line"/>
		</contour>
	</outline>
</glyph>
<glyph name="neg.-18" format="2">
	<advance width="200"/>
	<outline>
		<contour>
			<point x="-97.324" y="2.973" type="line"/>
			<point x="102.676" y="-177.027" type="line"/>
			<point x="97.324" y="-182.973" type="line"/>
			<point x="-102.676" y="-2.973" type="line"/>
		</contour>
	</outline>
</glyph>
<glyph name="neg.-19" format="2">
	<advance width="200"/>
	<outline>
		<contour>
			<point x="-99.656" y="0.362" type="line"/>
			<point x="100.344" y="-189.638" type="line"/>
			<point x="99.656" y="-190.362" type="line"/>
			<point x="-100.344" y="-0.362" type="line"/>
		</contour>
	</outline>
</glyph>
<glyph name="neg.-20" format="2">
	<advance width="200"/>
	<outline>
		<contour>
			<point x="-97.172" y="2.828" type="line"/>
			<point x="102.828" y="-197.172" type="line"/>
			<point x="97.172" y="-202.828" type="line"/>
			<point x="-102.828" y="-2.828" type="line"/>
		</contour>
	</outline>
</glyph>
<glyph name="neg.-22" format="2">
	<advance width="200"/>
	<outline>
		<contour>
			<point x="-99.63" y="0.336" type="line"/>
			<point x="100.37" y="-219.664" type="line"/>
			<point x="99.63" y="-220.336" type="line"/>
			<point x="-100.37" y="-0.336" type="line"/>
		</contour>
	</outline>
</glyph>
<glyph name="neg.-23" format="2">
	<advance width="200"/>
	<outline>
		<contour>
			<point x="-99.623" y="0.328" type="line"/>
			<point x="100.377" y="-229.672" type="line"/>
			<point x="99.623" y="-230.328" type="line"/>
			<point x="-100.377" y="-0.328" type="line"/>
		</contour>
	</outline>
</glyph>
<glyph name="neg.-24" format="2">
	<advance width="200"/>
	<outline>
		<contour>
			<point x="-96.927" y="2.561" type="line"/>
			<point x="103.073" y="-237.439" type="line"/>
			<point x="96.927" y="-242.561" type="line"/>
			<point x="-103.073" y="-2.561" type="line"/>
		</contour>
	</outline>
</glyph>
<glyph name="neg.-25" format="2">
	<advance width="200"/>
	<outline>
		<contour>
			<point x="-98.048" y="1.562" type="line"/>
			<point x="101.952" y="-248.438" type="line"/>
			<point x="98.048" y="-251.562" type="line"/>
			<point x="-101.952" y="-1.562" type="line"/>
		</contour>
	</outline>
</glyph>
<glyph name="neg.-26" format="2">
	<advance width="200"/>
	<outline>
		<contour>
			<point x="-96.83" y="2.439" type="line"/>
			<point x="103.17" y="-257.561" type="line"/>
			<point x="96.83" y="-262.439" type="line"/>
			<point x="-103.17" y="-2.439" type="line"/>
		</contour>
	</outline>
</glyph>
<glyph name="neg.-27" format="2">
	<advance width="200"/>
	<outline>
		<contour>
			<point x="-99.598" y="0.298" type="line"/>
			<point x="100.402" y="-269.702" type="line"/>
			<point x="99.598" y="-270.298" type="line"/>
			<point x="-100.402" y="-0.298" type="line"/>
		</contour>
	</outline>
</glyph>
<glyph name="neg.-28" format="2">
	<advance width="200"/>
	<outline>
		<contour>
			<point x="-99.593" y="0.291" type="line"/>
			<point x="100.407" y="-279.709" type="line"/>
			<point x="99.593" y="-280.291" type="line"/>
			<point x="-100.407" y="-0.291" type="line"/>
		</contour>
	</outline>
</glyph>
<glyph name="neg.-29" format="2">
	<advance width="200"/>
	<outline>
		<contour>
			<point x="-99.588" y="0.284" type="line"/>
			<point x="100.412" y="-289.716" type="line"/>
			<point x="99.588" y="-290.284" type="line"/>
			<point x="-100.412" y="-0.284" type="line"/>
		</contour>
	</outline>
</glyph>
<glyph name="neg.-3" format="2">
	<advance width="200"/>
	<outline>
		<contour>
			<point x="-99.629" y="2.472" type="line"/>
			<point x="100.371" y="-27.528" type="line"/>
			<point x="99.629" y="-32.472" type="line"/>
			<point x="-100.371" y="-2.472" type="line"/>
		</contour>
	</outline>
</glyph>
<glyph name="neg.-30" format="2">
	<advance width="200"/>
	<outline>
		<contour>
			<point x="-96.672" y="2.219" type="line"/>
			<point x="103.328" y="-297.781" type="line"/>
			<point x="96.672" y="-302.219" type="line"/>
			<point x="-103.328" y="-2.219" type="line"/>
		</contour>
	</outline>
</glyph>
<glyph name="neg.-31" format="2">
	<advance width="200"/>
	<outline>
		<contour>
			<point x="-99.58" y="0.271" type="line"/>
			<point x="100.42" y="-309.729" type="line"/>
			<point x="99.58" y="-310.271" type="line"/>
			<point x="-100.42" y="-0.271" type="line"/>
		</contour>
	</outline>
</glyph>
<glyph name="neg.-32" format="2">
	<advance width="200"/>
	<outline>
		<contour>
			<point x="-99.576" y="0.265" type="line"/>
			<point x="100.424" y="-319.735" type="line"/>
			<point x="99.576" y="-320.265" type="line"/>
			<point x="-100.424" y="-0.265" type="line"/>
		</contour>
	</outline>
</glyph>
<glyph name="neg.-33" format="2">
	<advance width="200"/>
	<outline>
		<contour>
			<point x="-96.579" y="2.073" type="line"/>
			<point x="103.421" y="-327.927" type="line"/>
			<point x="96.579" y="-332.073" type="line"/>
			<point x="-103.421" y="-2.073" type="line"/>
		</contour>
	</outline>
</glyph>
<glyph name="neg.-35" format="2">
	<advance width="200"/>
	<outline>
		<contour>
			<point x="-97.829" y="1.24" type="line"/>
			<point x="102.171" y="-348.76" type="line"/>
			<point x="97.829" y="-351.24" type="line"/>
			<point x="-102.171" y="-1.24" type="line"/>
		</contour>
	</outline>
</glyph>
<glyph name="neg.-36" format="2">
	<advance width="200"/>
	<outline>
		<contour>
			<point x="-96.503" y="1.943" type="line"/>
			<point x="103.497" y="-358.057" type="line"/>
			<point x="96.503" y="-361.943" type="line"/>
			<point x="-103.497" y="-1.943" type="line"/>
		</contour>
	</outline>
</glyph>
<glyph name="neg.-37" format="2">
	<advance width="200"/>
	<outline>
		<contour>
			<point x="-96.481" y="1.902" type="line"/>
			<point x="103.519" y="-368.098" type="line"/>
			<point x="96.481" y="-371.902" type="line"/>
			<point x="-103.519" y="-1.902" type="line"/>
		</contour>
	</outline>
</glyph>
<glyph name="neg.-39" format="2">
	<advance width="200"/>
	<outline>
		<contour>
			<point x="-97.775" y="1.141" type="line"/>
			<point x="102.225" y="-388.859" type="line"/>
			<point x="97.775" y="-391.141" type="line"/>
			<point x="-102.225" y="-1.141" type="line"/>
		</contour>
	</outline>
</glyph>
<glyph name="neg.-4" format="2">
	<advance width="200"/>
	<outline>
		<contour>
			<point x="-99.902" y="0.49" type="line"/>
			<point x="100.098" y="-39.51" type="line"/>
			<point x="99.902" y="-40.49" type="line"/>
			<point x="-100.098" y="-0.49" type="line"/>
		</contour>
	</outline>
</glyph>
<glyph name="neg.-41" format="2">
	<advance width="200"/>
	<outline>
		<contour>
			<point x="-99.551" y="0.219" type="line"/>
			<point x="100.449" y="-409.781" type="line"/>
			<point x="99.551" y="-410.219" type="line"/>
			<point x="-100.449" y="-0.219" type="line"/>
		</contour>
	</outline>
</glyph>
<glyph name="neg.-42" format="2">
	<advance width="200"/>
	<outline>
		<contour>
			<point x="-96.389" y="1.72" type="line"/>
			<point x="103.611" y="-418.28" type="line"/>
			<point x="96.389" y="-421.72" type="line"/>
			<point x="-103.611" y="-1.72" type="line"/>
		</contour>
	</outline>
</glyph>
<glyph name="neg.-43" format="2">
	<advance width="200"/>
	<outline>
		<contour>
			<point x="-97.733" y="1.054" type="line"/>
			<point x="102.267" y="-428.946" type="line"/>
			<point x="97.733" y="-431.054" type="line"/>
			<point x="-102.267" y="-1.054" type="line"/>
		</contour>
	</outline>
</glyph>
<glyph name="neg.-44" format="2">
	<advance width="200"/>
	<outline>
		<contour>
			<point x="-96.359" y="1.655" type="line"/>
			<point x="103.641" y="-438.345" type="line"/>
			<point x="96.359" y="-441.655" type="line"/>
			<point x="-103.641" y="-1.655" type="line"/>
		</contour>
	</outline>
</glyph>
<glyph name="neg.-45" format="2">
	<advance width="200"/>
	<outline>
		<contour>
			<point x="-96.345" y="1.625" type="line"/>
			<point x="103.655" y="-448.375" type="line"/>
			<point x="96.345" y="-451.625" type="line"/>
			<point x="-103.655" y="-1.625" type="line"/>
		</contour>
	</outline>
</glyph>
<glyph name="neg.-47" format="2">
	<advance width="200"/>
	<outline>
		<contour>
			<point x="-96.319" y="1.566" type="line"/>
			<point x="103.681" y="-468.434" type="line"/>
			<point x="96.319" y="-471.566" type="line"/>
			<point x="-103.681" y="-1.566" type="line"/>
		</contour>
	</outline>
</glyph>
<glyph name="neg.-48" format="2">
	<advance width="200"/>
	<outline>
		<contour>
			<point x="-96.308" y="1.538" type="line"/>
			<point x="103.692" y="-478.462" type="line"/>
			<point x="96.308" y="-481.538" type="line"/>
			<point x="-103.692" y="-1.538" type="line"/>
		</contour>
	</outline>
</glyph>
<glyph name="neg.-49" format="2">
	<advance width="200"/>
	<outline>
		<contour>
			<point x="-96.297" y="1.512" type="line"/>
			<point x="103.703" y="-488.488" type="line"/>
			<point x="96.297" y="-491.512" type="line"/>
			<point x="-103.703" y="-1.512" type="line"/>
		</contour>
	</outline>
</glyph>
<glyph name="neg.-50" format="2">
	<advance width="200"/>
	<outline>
		<contour>
			<point x="-99.536" y="0.186" type="line"/>
			<point x="100.464" y="-499.814" type="line"/>
			<point x="99.536" y="-500.186" type="line"/>
			<point x="-100.464" y="-0.186" type="line"/>
		</contour>
	</outline>
</glyph>
<glyph name="neg.-51" format="2">
	<advance width="200"/>
	<outline>
		<contour>
			<point x="-96.276" y="1.46" type="line"/>
			<point x="103.724" y="-508.54" type="line"/>
			<point x="96.276" y="-511.46" type="line"/>
			<point x="-103.724" y="-1.46" type="line"/>
		</contour>
	</outline>
</glyph>
<glyph name="neg.-52" format="2">
	<advance width="200"/>
	<outline>
		<contour>
			<point x="-97.667" y="0.897" type="line"/>
			<point x="102.333" y="-519.103" type="line"/>
			<point x="97.667" y="-520.897" type="line"/>
			<point x="-102.333" y="-0.897" type="line"/>
		</contour>
	</outline>
</glyph>
<glyph name="neg.-53" format="2">
	<advance width="200"/>
	<outline>
		<contour>
			<point x="-96.258" y="1.412" type="line"/>
			<point x="103.742" y="-528.588" type="line"/>
			<point x="96.258" y="-531.412" type="line"/>
			<point x="-103.742" y="-1.412" type="line"/>
		</contour>
	</outline>
</glyph>
<glyph name="neg.-54" format="2">
	<advance width="200"/>
	<outline>
		<contour>
			<point x="-99.531" y="0.174" type="line"/>
			<point x="100.469" y="-539.826" type="line"/>
			<point x="99.531" y="-540.174" type="line"/>
			<point x="-100.469" y="-0.174" type="line"/>
		</contour>
	</outline>
</glyph>
<glyph name="neg.-55" format="2">
	<advance width="200"/>
	<outline>
		<contour>
			<point x="-99.53" y="0.171" type="line"/>
			<point x="100.47" y="-549.829" type="line"/>
			<point x="99.53" y="-550.171" type="line"/>
			<point x="-100.47" y="-0.171" type="line"/>
		</contour>
	</outline>
</glyph>
<glyph name="neg.-59" format="2">
	<advance width="200"/>
	<outline>
		<contour>
			<point x="-99.526" y="0.161" type="line"/>
			<point x="100.474" y="-589.839" type="line"/>
			<point x="99.526" y="-590.161" type="line"/>
			<point x="-100.474" y="-0.161" type="line"/>
		</contour>
	</outline>
</glyph>
<glyph name="neg.-6" format="2">
	<advance width="200"/>
	<outline>
		<contour>
			<point x="-98.851" y="3.831" type="line"/>
			<point x="101.149" y="-56.169" type="line"/>
			<point x="98.851" y="-63.831" type="line"/>
			<point x="-101.149" y="-3.831" type="line"/>
		</contour>
	</outline>
</glyph>
<glyph name="neg.-60" format="2">
	<advance width="200"/>
	<outline>
		<contour>
			<point x="-99.526" y="0.158" type="line"/>
			<point x="100.474" y="-599.842" type="line"/>
			<point x="99.526" y="-600.158" type="line"/>
			<point x="-100.474" y="-0.158" type="line"/>
		</contour>
	</outline>
</glyph>
<glyph name="neg.-61" format="2">
	<advance width="200"/>
	<outline>
		<contour>
			<point x="-99.525" y="0.156" type="line"/>
			<point x="100.475" y="-609.844" type="line"/>
			<point x="99.525" y="-610.156" type="line"/>
			<point x="-100.475" y="-0.156" type="line"/>
		</contour>
	</outline>
</glyph>
<glyph name="neg.-62" format="2">
	<advance width="200"/>
	<outline>
		<contour>
			<point x="-99.524" y="0.154" type="line"/>
			<point x="100.476" y="-619.846" type="line"/>
			<point x="99.524" y="-620.154" type="line"/>
			<point x="-100.476" y="-0.154" type="line"/>
		</contour>
	</outline>
</glyph>
<glyph name="neg.-63" format="2">
	<advance width="200"/>
	<outline>
		<contour>
			<point x="-99.523" y="0.151" type="line"/>
			<point x="100.477" y="-629.849" type="line"/>
			<point x="99.523" y="-630.151" type="line"/>
			<point x="-100.477" y="-0.151" type="line"/>
		</contour>
	</outline>
</glyph>
<glyph name="neg.-64" format="2">
	<advance width="200"/>
	<outline>
		<contour>
			<point x="-96.182" y="1.193" type="line"/>
			<point x="103.818" y="-638.807" type="line"/>
			<point x="96.182" y="-641.193" type="line"/>
			<point x="-103.818" y="-1.193" type="line"/>
		</contour>
	</outline>
</glyph>
<glyph name="neg.-65" format="2">
	<advance width="200"/>
	<outline>
		<contour>
			<point x="-96.177" y="1.176" type="line"/>
			<point x="103.823" y="-648.824" type="line"/>
			<point x="96.177" y="-651.176" type="line"/>
			<point x="-103.823" y="-1.176" type="line"/>
		</contour>
	</outline>
</glyph>
<glyph name="neg.-66" format="2">
	<advance width="200"/>
	<outline>
		<contour>
			<point x="-96.172" y="1.16" type="line"/>
			<point x="103.828" y="-658.84" type="line"/>
			<point x="96.172" y="-661.16" type="line"/>
			<point x="-103.828" y="-1.16" type="line"/>
		</contour>
	</outline>
</glyph>
<glyph name="neg.-67" format="2">
	<advance width="200"/>
	<outline>
		<contour>
			<point x="-99.521" y="0.143" type="line"/>
			<point x="100.479" y="-669.857" type="line"/>
			<point x="99.521" y="-670.143" type="line"/>
			<point x="-100.479" y="-0.143" type="line"/>
		</contour>
	</outline>
</glyph>
<glyph name="neg.-68" format="2">
	<advance width="200"/>
	<outline>
		<contour>
			<point x="-99.52" y="0.141" type="line"/>
			<point x="100.48" y="-679.859" type="line"/>
			<point x="99.52" y="-680.141" type="line"/>
			<point x="-100.48" y="-0.141" type="line"/>
		</contour>
	</outline>
</glyph>
<glyph name="neg.-69" format="2">
	<advance width="200"/>
	<outline>
		<contour>
			<point x="-99.52" y="0.139" type="line"/>
			<point x="100.48" y="-689.861" type="line"/>
			<point x="99.52" y="-690.139" type="line"/>
			<point x="-100.48" y="-0.139" type="line"/>
		</contour>
	</outline>
</glyph>
<glyph name="neg.-7" format="2">
	<advance width="200"/>
	<outline>
		<contour>
			<point x="-99.174" y="2.36" type="line"/>
			<point x="100.826" y="-67.64" type="line"/>
			<point x="99.174" y="-72.36" type="line"/>
			<point x="-100.826" y="-2.36" type="line"/>
		</contour>
	</outline>
</glyph>
<glyph name="neg.-70" format="2">
	<advance width="200"/>
	<outline>
		<contour>
			<point x="-97.596" y="0.687" type="line"/>
			<point x="102.404" y="-699.313" type="line"/>
			<point x="97.596" y="-700.687" type="line"/>
			<point x="-102.404" y="-0.687" type="line"/>
		</contour>
	</outline>
</glyph>
<glyph name="neg.-71" format="2">
	<advance width="200"/>
	<outline>
		<contour>
			<point x="-99.519" y="0.136" type="line"/>
			<point x="100.481" y="-709.864" type="line"/>
			<point x="99.519" y="-710.136" type="line"/>
			<point x="-100.481" y="-0.136" type="line"/>
		</contour>
	</outline>
</glyph>
<glyph name="neg.-72" format="2">
	<advance width="200"/>
	<outline>
		<contour>
			<point x="-96.146" y="1.071" type="line"/>
			<point x="103.854" y="-718.929" type="line"/>
			<point x="96.146" y="-721.071" type="line"/>
			<point x="-103.854" y="-1.071" type="line"/>
		</contour>
	</outline>
</glyph>
<glyph name="neg.-73" format="2">
	<advance width="200"/>
	<outline>
		<contour>
			<point x="-99.518" y="0.132" type="line"/>
			<point x="100.482" y="-729.868" type="line"/>
			<point x="99.518" y="-730.132" type="line"/>
			<point x="-100.482" y="-0.132" type="line"/>
		</contour>
	</outline>
</glyph>
<glyph name="neg.-75" format="2">
	<advance width="200"/>
	<outline>
		<contour>
			<point x="-96.135" y="1.031" type="line"/>
			<point x="103.865" y="-748.969" type="line"/>
			<point x="96.135" y="-751.031" type="line"/>
			<point x="-103.865" y="-1.031" type="line"/>
		</contour>
	</outline>
</glyph>
<glyph name="neg.-76" format="2">
	<advance width="200"/>
	<outline>
		<contour>
			<point x="-96.132" y="1.018" type="line"/>
			<point x="103.868" y="-758.982" type="line"/>
			<point x="96.132" y="-761.018" type="line"/>
			<point x="-103.868" y="-1.018" type="line"/>
		</contour>
	</outline>
</glyph>
<glyph name="neg.-77" format="2">
	<advance width="200"/>
	<outline>
		<contour>
			<point x="-99.516" y="0.126" type="line"/>
			<point x="100.484" y="-769.874" type="line"/>
			<point x="99.516" y="-770.126" type="line"/>
			<point x="-100.484" y="-0.126" type="line"/>
		</contour>
	</outline>
</glyph>
<glyph name="neg.-78" format="2">
	<advance width="200"/>
	<outline>
		<contour>
			<point x="-96.125" y="0.994" type="line"/>
			<point x="103.875" y="-779.006" type="line"/>
			<point x="96.125" y="-780.994" type="line"/>
			<point x="-103.875" y="-0.994" type="line"/>
		</contour>
	</outline>
</glyph>
<glyph name="neg.-79" format="2">
	<advance width="200"/>
	<outline>
		<contour>
			<point x="-96.122" y="0.982" type="line"/>
			<point x="103.878" y="-789.018" type="line"/>
			<point x="96.122" y="-790.982" type="line"/>
			<point x="-103.878" y="-0.982" type="line"/>
		</contour>
	</outline>
</glyph>
<glyph name="neg.-80" format="2">
	<advance width="200"/>
	<outline>
		<contour>
			<point x="-99.515" y="0.121" type="line"/>
			<point x="100.485" y="-799.879" type="line"/>
			<point x="99.515" y="-800.121" type="line"/>
			<point x="-100.485" y="-0.121" type="line"/>
		</contour>
	</outline>
</glyph>
<glyph name="neg.-81" format="2">
	<advance width="200"/>
	<outline>
		<contour>
			<point x="-97.573" y="0.599" type="line"/>
			<point x="102.427" y="-809.401" type="line"/>
			<point x="97.573" y="-810.599" type="line"/>
			<point x="-102.427" y="-0.599" type="line"/>
		</contour>
	</outline>
</glyph>
<glyph name="neg.-82" format="2">
	<advance width="200"/>
	<outline>
		<contour>
			<point x="-99.514" y="0.118" type="line"/>
			<point x="100.486" y="-819.882" type="line"/>
			<point x="99.514" y="-820.118" type="line"/>
			<point x="-100.486" y="-0.118" type="line"/>
		</contour>
	</outline>
</glyph>
<glyph name="neg.-83" format="2">
	<advance width="200"/>
	<outline>
		<contour>
			<point x="-99.514" y="0.117" type="line"/>
			<point x="100.486" y="-829.883" type="line"/>
			<point x="99.514" y="-830.117" type="line"/>
			<point x="-100.486" y="-0.117" type="line"/>
		</contour>
	</outline>
</glyph>
<glyph name="neg.-84" format="2">
	<advance width="200"/>
	<outline>
		<contour>
			<point x="-96.109" y="0.926" type="line"/>
			<point x="103.891" y="-839.074" type="line"/>
			<point x="96.109" y="-840.926" type="line"/>
			<point x="-103.891" y="-0.926" type="line"/>
		</contour>
	</outline>
</glyph>
<glyph name="neg.-86" format="2">
	<advance width="200"/>
	<outline>
		<contour>
			<point x="-99.513" y="0.113" type="line"/>
			<point x="100.487" y="-859.887" type="line"/>
			<point x="99.513" y="-860.113" type="line"/>
			<point x="-100.487" y="-0.113" type="line"/>
		</contour>
	</outline>
</glyph>
<glyph name="neg.-88" format="2">
	<advance width="200"/>
	<outline>
		<contour>
			<point x="-99.512" y="0.111" type="line"/>
			<point x="100.488" y="-879.889" type="line"/>
			<point x="99.512" y="-880.111" type="line"/>
			<point x="-100.488" y="-0.111" type="line"/>
		</contour>
	</outline>
</glyph>
<glyph name="neg.-89" format="2">
	<advance width="200"/>
	<outline>
		<contour>
			<point x="-99.512" y="0.11" type="line"/>
			<point x="100.488" y="-889.89" type="line"/>
			<point x="99.512" y="-890.11" type="line"/>
			<point x="-100.488" y="-0.11" type="line"/>
		</contour>
	</outline>
</glyph>
<glyph name="neg.-9" format="2">
	<advance width="200"/>
	<outline>
		<contour>
			<point x="-99.795" y="0.456" type="line"/>
			<point x="100.205" y="-89.544" type="line"/>
			<point x="99.795" y="-90.456" type="line"/>
			<point x="-100.205" y="-0.456" type="line"/>
		</contour>
	</outline>
</glyph>
<glyph name="neg.-90" format="2">
	<advance width="200"/>
	<outline>
		<contour>
			<point x="-99.512" y="0.108" type="line"/>
			<point x="100.488" y="-899.892" type="line"/>
			<point x="99.512" y="-900.108" type="line"/>
			<point x="-100.488" y="-0.108" type="line"/>
		</contour>
	</outline>
</glyph>
<glyph name="neg.-92" format="2">
	<advance width="200"/>
	<outline>
		<contour>
			<point x="-96.091" y="0.85" type="line"/>
			<point x="103.909" y="-919.15" type="line"/>
			<point x="96.091" y="-920.85" type="line"/>
			<point x="-103.909" y="-0.85" type="line"/>
		</contour>
	</outline>
</glyph>
<glyph name="neg.-94" format="2">
	<advance width="200"/>
	<outline>
		<contour>
			<point x="-96.088" y="0.832" type="line"/>
			<point x="103.912" y="-939.168" type="line"/>
			<point x="96.088" y="-940.832" type="line"/>
			<point x="-103.912" y="-0.832" type="line"/>
		</contour>
	</outline>
</glyph>
<glyph name="neg.-95" format="2">
	<advance width="200"/>
	<outline>
		<contour>
			<point x="-97.554" y="0.515" type="line"/>
			<point x="102.446" y="-949.485" type="line"/>
			<point x="97.554" y="-950.515" type="line"/>
			<point x="-102.446" y="-0.515" type="line"/>
		</contour>
	</outline>
</glyph>
<glyph name="neg.-97" format="2">
	<advance width="200"/>
	<outline>
		<contour>
			<point x="-99.51" y="0.101" type="line"/>
			<point x="100.49" y="-969.899" type="line"/>
			<point x="99.51" y="-970.101" type="line"/>
			<point x="-100.49" y="-0.101" type="line"/>
		</contour>
	</outline>
</glyph>
<glyph name="neg.-98" format="2">
	<advance width="200"/>
	<outline>
		<contour>
			<point x="-96.081" y="0.8" type="line"/>
			<point x="103.919" y="-979.2" type="line"/>
			<point x="96.081" y="-980.8" type="line"/>
			<point x="-103.919" y="-0.8" type="line"/>
		</contour>
	</outline>
</glyph>
<glyph name="neg.-99" format="2">
	<advance width="200"/>
	<outline>
		<contour>
			<point x="-96.079" y="0.792" type="line"/>
			<point x="103.921" y="-989.208" type="line"/>
			<point x="96.079" y="-990.792" type="line"/>
			<point x="-103.921" y="-0.792" type="line"/>
		</contour>
	</outline>
</glyph>
<glyph name="point" format="2">
	<outline>
		<contour>
			<point x="-0.5" y="-0.275"/>
			<point x="-0.5" y="0" type="curve" smooth="yes"/>
			<point x="-0.5" y="0.275"/>
			<point x="-0.275" y="0.5"/>
			<point x="0" y="0.5" type="curve" smooth="yes"/>
			<point x="0.275" y="0.5"/>
			<point x="0.5" y="0.275"/>
			<point x="0.5" y="0" type="curve" smooth="yes"/>
			<point x="0.5" y="-0.275"/>
			<point x="0.275" y="-0.5"/>
			<point x="0" y="-0.5" type="curve" smooth="yes"/>
			<point x="-0.275" y="-0.5"/>
		</contour>
	</outline>
</glyph>
<glyph name="neg.0" format="2">
	<advance width="200"/>
	<outline>
		<contour>
			<point x="-100" y="4" type="line"/>
			<point x="100" y="4" type="line"/>
			<point x="100" y="-4" type="line"/>
			<point x="-100" y="-4" type="line"/>
		</contour>
	</outline>
</glyph>
<glyph name="pos.1" format="2">
	<advance width="200"/>
	<outline>
		<contour>
			<point x="-100.2" y="3.995" type="line"/>
			<point x="99.8" y="13.995" type="line"/>
			<point x="100.2" y="6.005" type="line"/>
			<point x="-99.8" y="-3.995" type="line"/>
		</contour>
	</outline>
</glyph>
<glyph name="pos.10" format="2">
	<advance width="200"/>
	<outline>
		<contour>
			<point x="-101.118" y="2.236" type="line"/>
			<point x="98.882" y="102.236" type="line"/>
			<point x="101.118" y="97.764" type="line"/>
			<point x="-98.882" y="-2.236" type="line"/>
		</contour>
	</outline>
</glyph>
<glyph name="pos.101" format="2">
	<advance width="200"/>
	<outline>
		<contour>
			<point x="-103.924" y="0.777" type="line"/>
			<point x="96.076" y="1010.777" type="line"/>
			<point x="103.924" y="1009.223" type="line"/>
			<point x="-96.076" y="-0.777" type="line"/>
		</contour>
	</outline>
</glyph>
<glyph name="pos.102" format="2">
	<advance width="200"/>
	<outline>
		<contour>
			<point x="-102.453" y="0.481" type="line"/>
			<point x="97.547" y="1020.481" type="line"/>
			<point x="102.453" y="1019.519" type="line"/>
			<point x="-97.547" y="-0.481" type="line"/>
		</contour>
	</outline>
</glyph>
<glyph name="pos.103" format="2">
	<advance width="200"/>
	<outline>
		<contour>
			<point x="-100.491" y="0.095" type="line"/>
			<point x="99.509" y="1030.095" type="line"/>
			<point x="100.491" y="1029.905" type="line"/>
			<point x="-99.509" y="-0.095" type="line"/>
		</contour>
	</outline>
</glyph>
<glyph name="pos.104" format="2">
	<advance width="200"/>
	<outline>
		<contour>
			<point x="-102.455" y="0.472" type="line"/>
			<point x="97.545" y="1040.472" type="line"/>
			<point x="102.455" y="1039.528" type="line"/>
			<point x="-97.545" y="-0.472" type="line"/>
		</contour>
	</outline>
</glyph>
<glyph name="pos.105" format="2">
	<advance width="200"/>
	<outline>
		<contour>
			<point x="-103.929" y="0.748" type="line"/>
			<point x="96.071" y="1050.748" type="line"/>
			<point x="103.929" y="1049.252" type="line"/>
			<point x="-96.071" y="-0.748" type="line"/>
		</contour>
	</outline>
</glyph>
<glyph name="pos.106" format="2">
	<advance width="200"/>
	<outline>
		<contour>
			<point x="-103.931" y="0.742" type="line"/>
			<point x="96.069" y="1060.742" type="line"/>
			<point x="103.931" y="1059.258" type="line"/>
			<point x="-96.069" y="-0.742" type="line"/>
		</contour>
	</outline>
</glyph>
<glyph name="pos.107" format="2">
	<advance width="200"/>
	<outline>
		<contour>
			<point x="-100.491" y="0.092" type="line"/>
			<point x="99.509" y="1070.092" type="line"/>
			<point x="100.491" y="1069.908" type="line"/>
			<point x="-99.509" y="-0.092" type="line"/>
		</contour>
	</outline>
</glyph>
<glyph name="pos.108" format="2">
	<advance width="200"/>
	<outline>
		<contour>
			<point x="-102.458" y="0.455" type="line"/>
			<point x="97.542" y="1080.455" type="line"/>
			<point x="102.458" y="1079.545" type="line"/>
			<point x="-97.542" y="-0.455" type="line"/>
		</contour>
	</outline>
</glyph>
<glyph name="pos.109" format="2">
	<advance width="200"/>
	<outline>
		<contour>
			<point x="-102.459" y="0.451" type="line"/>
			<point x="97.541" y="1090.451" type="line"/>
			<point x="102.459" y="1089.549" type="line"/>
			<point x="-97.541" y="-0.451" type="line"/>
		</contour>
	</outline>
</glyph>
<glyph name="pos.11" format="2">
	<advance width="200"/>
	<outline>
		<contour>
			<point x="-101.928" y="3.505" type="line"/>
			<point x="98.072" y="113.505" type="line"/>
			<point x="101.928" y="106.495" type="line"/>
			<point x="-98.072" y="-3.505" type="line"/>
		</contour>
	</outline>
</glyph>
<glyph name="pos.110" format="2">
	<advance width="200"/>
	<outline>
		<contour>
			<point x="-103.935" y="0.716" type="line"/>
			<point x="96.065" y="1100.716" type="line"/>
			<point x="103.935" y="1099.284" type="line"/>
			<point x="-96.065" y="-0.716" type="line"/>
		</contour>
	</outline>
</glyph>
<glyph name="pos.111" format="2">
	<advance width="200"/>
	<outline>
		<contour>
			<point x="-103.937" y="0.709" type="line"/>
			<point x="96.063" y="1110.709" type="line"/>
			<point x="103.937" y="1109.291" type="line"/>
			<point x="-96.063" y="-0.709" type="line"/>
		</contour>
	</outline>
</glyph>
<glyph name="pos.113" format="2">
	<advance width="200"/>
	<outline>
		<contour>
			<point x="-100.492" y="0.087" type="line"/>
			<point x="99.508" y="1130.087" type="line"/>
			<point x="100.492" y="1129.913" type="line"/>
			<point x="-99.508" y="-0.087" type="line"/>
		</contour>
	</outline>
</glyph>
<glyph name="pos.114" format="2">
	<advance width="200"/>
	<outline>
		<contour>
			<point x="-103.94" y="0.691" type="line"/>
			<point x="96.06" y="1140.691" type="line"/>
			<point x="103.94" y="1139.309" type="line"/>
			<point x="-96.06" y="-0.691" type="line"/>
		</contour>
	</outline>
</glyph>
<glyph name="pos.115" format="2">
	<advance width="200"/>
	<outline>
		<contour>
			<point x="-103.941" y="0.685" type="line"/>
			<point x="96.059" y="1150.685" type="line"/>
			<point x="103.941" y="1149.315" type="line"/>
			<point x="-96.059" y="-0.685" type="line"/>
		</contour>
	</outline>
</glyph>
<glyph name="pos.116" format="2">
	<advance width="200"/>
	<outline>
		<contour>
			<point x="-103.942" y="0.68" type="line"/>
			<point x="96.058" y="1160.68" type="line"/>
			<point x="103.942" y="1159.32" type="line"/>
			<point x="-96.058" y="-0.68" type="line"/>
		</contour>
	</outline>
</glyph>
<glyph name="pos.117" format="2">
	<advance width="200"/>
	<outline>
		<contour>
			<point x="-103.943" y="0.674" type="line"/>
			<point x="96.057" y="1170.674" type="line"/>
			<point x="103.943" y="1169.326" type="line"/>
			<point x="-96.057" y="-0.674" type="line"/>
		</contour>
	</outline>
</glyph>
<glyph name="pos.119" format="2">
	<advance width="200"/>
	<outline>
		<contour>
			<point x="-100.493" y="0.083" type="line"/>
			<point x="99.507" y="1190.083" type="line"/>
			<point x="100.493" y="1189.917" type="line"/>
			<point x="-99.507" y="-0.083" type="line"/>
		</contour>
	</outline>
</glyph>
<glyph name="pos.12" format="2">
	<advance width="200"/>
	<outline>
		<contour>
			<point x="-102.058" y="3.43" type="line"/>
			<point x="97.942" y="123.43" type="line"/>
			<point x="102.058" y="116.57" type="line"/>
			<point x="-97.942" y="-3.43" type="line"/>
		</contour>
	</outline>
</glyph>
<glyph name="pos.120" format="2">
	<advance width="200"/>
	<outline>
		<contour>
			<point x="-100.493" y="0.082" type="line"/>
			<point x="99.507" y="1200.082" type="line"/>
			<point x="100.493" y="1199.918" type="line"/>
			<point x="-99.507" y="-0.082" type="line"/>
		</contour>
	</outline>
</glyph>
<glyph name="pos.121" format="2">
	<advance width="200"/>
	<outline>
		<contour>
			<point x="-103.946" y="0.652" type="line"/>
			<point x="96.054" y="1210.652" type="line"/>
			<point x="103.946" y="1209.348" type="line"/>
			<point x="-96.054" y="-0.652" type="line"/>
		</contour>
	</outline>
</glyph>
<glyph name="pos.123" format="2">
	<advance width="200"/>
	<outline>
		<contour>
			<point x="-103.948" y="0.642" type="line"/>
			<point x="96.052" y="1230.642" type="line"/>
			<point x="103.948" y="1229.358" type="line"/>
			<point x="-96.052" y="-0.642" type="line"/>
		</contour>
	</outline>
</glyph>
<glyph name="pos.124" format="2">
	<advance width="200"/>
	<outline>
		<contour>
			<point x="-100.494" y="0.08" type="line"/>
			<point x="99.506" y="1240.08" type="line"/>
			<point x="100.494" y="1239.92" type="line"/>
			<point x="-99.506" y="-0.08" type="line"/>
		</contour>
	</outline>
</glyph>
<glyph name="pos.126" format="2">
	<advance width="200"/>
	<outline>
		<contour>
			<point x="-102.469" y="0.392" type="line"/>
			<point x="97.531" y="1260.392" type="line"/>
			<point x="102.469" y="1259.608" type="line"/>
			<point x="-97.531" y="-0.392" type="line"/>
		</contour>
	</outline>
</glyph>
<glyph name="pos.127" format="2">
	<advance width="200"/>
	<outline>
		<contour>
			<point x="-100.494" y="0.078" type="line"/>
			<point x="99.506" y="1270.078" type="line"/>
			<point x="100.494" y="1269.922" type="line"/>
			<point x="-99.506" y="-0.078" type="line"/>
		</contour>
	</outline>
</glyph>
<glyph name="pos.13" format="2">
	<advance width="200"/>
	<outline>
		<contour>
			<point x="-100.272" y="0.419" type="line"/>
			<point x="99.728" y="130.419" type="line"/>
			<point x="100.272" y="129.581" type="line"/>
			<point x="-99.728" y="-0.419" type="line"/>
		</contour>
	</outline>
</glyph>
<glyph name="pos.14" format="2">
	<advance width="200"/>
	<outline>
		<contour>
			<point x="-102.294" y="3.277" type="line"/>
			<point x="97.706" y="143.277" type="line"/>
			<point x="102.294" y="136.723" type="line"/>
			<point x="-97.706" y="-3.277" type="line"/>
		</contour>
	</outline>
</glyph>
<glyph name="pos.15" format="2">
	<advance width="200"/>
	<outline>
		<contour>
			<point x="-101.5" y="2" type="line"/>
			<point x="98.5" y="152" type="line"/>
			<point x="101.5" y="148" type="line"/>
			<point x="-98.5" y="-2" type="line"/>
		</contour>
	</outline>
</glyph>
<glyph name="pos.17" format="2">
	<advance width="200"/>
	<outline>
		<contour>
			<point x="-102.591" y="3.048" type="line"/>
			<point x="97.409" y="173.048" type="line"/>
			<point x="102.591" y="166.952" type="line"/>
			<point x="-97.409" y="-3.048" type="line"/>
		</contour>
	</outline>
</glyph>
<glyph name="pos.19" format="2">
	<advance width="200"/>
	<outline>
		<contour>
			<point x="-102.755" y="2.9" type="line"/>
			<point x="97.245" y="192.9" type="line"/>
			<point x="102.755" y="187.1" type="line"/>
			<point x="-97.245" y="-2.9" type="line"/>
		</contour>
	</outline>
</glyph>
<glyph name="pos.2" format="2">
	<advance width="200"/>
	<outline>
		<contour>
			<point x="-100.05" y="0.498" type="line"/>
			<point x="99.95" y="20.498" type="line"/>
			<point x="100.05" y="19.502" type="line"/>
			<point x="-99.95" y="-0.498" type="line"/>
		</contour>
	</outline>
</glyph>
<glyph name="pos.20" format="2">
	<advance width="200"/>
	<outline>
		<contour>
			<point x="-100.354" y="0.354" type="line"/>
			<point x="99.646" y="200.354" type="line"/>
			<point x="100.354" y="199.646" type="line"/>
			<point x="-99.646" y="-0.354" type="line"/>
		</contour>
	</outline>
</glyph>
<glyph name="pos.21" format="2">
	<advance width="200"/>
	<outline>
		<contour>
			<point x="-102.897" y="2.759" type="line"/>
			<point x="97.103" y="212.759" type="line"/>
			<point x="102.897" y="207.241" type="line"/>
			<point x="-97.103" y="-2.759" type="line"/>
		</contour>
	</outline>
</glyph>
<glyph name="pos.23" format="2">
	<advance width="200"/>
	<outline>
		<contour>
			<point x="-103.018" y="2.625" type="line"/>
			<point x="96.982" y="232.625" type="line"/>
			<point x="103.018" y="227.375" type="line"/>
			<point x="-96.982" y="-2.625" type="line"/>
		</contour>
	</outline>
</glyph>
<glyph name="pos.25" format="2">
	<advance width="200"/>
	<outline>
		<contour>
			<point x="-103.123" y="2.499" type="line"/>
			<point x="96.877" y="252.499" type="line"/>
			<point x="103.123" y="247.501" type="line"/>
			<point x="-96.877" y="-2.499" type="line"/>
		</contour>
	</outline>
</glyph>
<glyph name="pos.26" format="2">
	<advance width="200"/>
	<outline>
		<contour>
			<point x="-100.396" y="0.305" type="line"/>
			<point x="99.604" y="260.305" type="line"/>
			<point x="100.396" y="259.695" type="line"/>
			<point x="-99.604" y="-0.305" type="line"/>
		</contour>
	</outline>
</glyph>
<glyph name="pos.27" format="2">
	<advance width="200"/>
	<outline>
		<contour>
			<point x="-103.214" y="2.381" type="line"/>
			<point x="96.786" y="272.381" type="line"/>
			<point x="103.214" y="267.619" type="line"/>
			<point x="-96.786" y="-2.381" type="line"/>
		</contour>
	</outline>
</glyph>
<glyph name="pos.28" format="2">
	<advance width="200"/>
	<outline>
		<contour>
			<point x="-103.255" y="2.325" type="line"/>
			<point x="96.745" y="282.325" type="line"/>
			<point x="103.255" y="277.675" type="line"/>
			<point x="-96.745" y="-2.325" type="line"/>
		</contour>
	</outline>
</glyph>
<glyph name="pos.3" format="2">
	<advance width="200"/>
	<outline>
		<contour>
			<point x="-100.593" y="3.956" type="line"/>
			<point x="99.407" y="33.956" type="line"/>
			<point x="100.593" y="26.044" type="line"/>
			<point x="-99.407" y="-3.956" type="line"/>
		</contour>
	</outline>
</glyph>
<glyph name="pos.30" format="2">
	<advance width="200"/>
	<outline>
		<contour>
			<point x="-100.416" y="0.277" type="line"/>
			<point x="99.584" y="300.277" type="line"/>
			<point x="100.416" y="299.723" type="line"/>
			<point x="-99.584" y="-0.277" type="line"/>
		</contour>
	</outline>
</glyph>
<glyph name="pos.31" format="2">
	<advance width="200"/>
	<outline>
		<contour>
			<point x="-103.361" y="2.169" type="line"/>
			<point x="96.639" y="312.169" type="line"/>
			<point x="103.361" y="307.831" type="line"/>
			<point x="-96.639" y="-2.169" type="line"/>
		</contour>
	</outline>
</glyph>
<glyph name="pos.33" format="2">
	<advance width="200"/>
	<outline>
		<contour>
			<point x="-102.138" y="1.296" type="line"/>
			<point x="97.862" y="331.296" type="line"/>
			<point x="102.138" y="328.704" type="line"/>
			<point x="-97.862" y="-1.296" type="line"/>
		</contour>
	</outline>
</glyph>
<glyph name="pos.34" format="2">
	<advance width="200"/>
	<outline>
		<contour>
			<point x="-100.431" y="0.254" type="line"/>
			<point x="99.569" y="340.254" type="line"/>
			<point x="100.431" y="339.746" type="line"/>
			<point x="-99.569" y="-0.254" type="line"/>
		</contour>
	</outline>
</glyph>
<glyph name="pos.36" format="2">
	<advance width="200"/>
	<outline>
		<contour>
			<point x="-100.437" y="0.243" type="line"/>
			<point x="99.563" y="360.243" type="line"/>
			<point x="100.437" y="359.757" type="line"/>
			<point x="-99.563" y="-0.243" type="line"/>
		</contour>
	</outline>
</glyph>
<glyph name="pos.37" format="2">
	<advance width="200"/>
	<outline>
		<contour>
			<point x="-102.199" y="1.189" type="line"/>
			<point x="97.801" y="371.189" type="line"/>
			<point x="102.199" y="368.811" type="line"/>
			<point x="-97.801" y="-1.189" type="line"/>
		</contour>
	</outline>
</glyph>
<glyph name="pos.38" format="2">
	<advance width="200"/>
	<outline>
		<contour>
			<point x="-100.442" y="0.233" type="line"/>
			<point x="99.558" y="380.233" type="line"/>
			<point x="100.442" y="379.767" type="line"/>
			<point x="-99.558" y="-0.233" type="line"/>
		</contour>
	</outline>
</glyph>
<glyph name="pos.39" format="2">
	<advance width="200"/>
	<outline>
		<contour>
			<point x="-103.559" y="1.825" type="line"/>
			<point x="96.441" y="391.825" type="line"/>
			<point x="103.559" y="388.175" type="line"/>
			<point x="-96.441" y="-1.825" type="line"/>
		</contour>
	</outline>
</glyph>
<glyph name="pos.4" format="2">
	<advance width="200"/>
	<outline>
		<contour>
			<point x="-100.49" y="2.451" type="line"/>
			<point x="99.51" y="42.451" type="line"/>
			<point x="100.49" y="37.549" type="line"/>
			<point x="-99.51" y="-2.451" type="line"/>
		</contour>
	</outline>
</glyph>
<glyph name="pos.40" format="2">
	<advance width="200"/>
	<outline>
		<contour>
			<point x="-100.447" y="0.224" type="line"/>
			<point x="99.553" y="400.224" type="line"/>
			<point x="100.447" y="399.776" type="line"/>
			<point x="-99.553" y="-0.224" type="line"/>
		</contour>
	</outline>
</glyph>
<glyph name="pos.41" format="2">
	<advance width="200"/>
	<outline>
		<contour>
			<point x="-103.595" y="1.754" type="line"/>
			<point x="96.405" y="411.754" type="line"/>
			<point x="103.595" y="408.246" type="line"/>
			<point x="-96.405" y="-1.754" type="line"/>
		</contour>
	</outline>
</glyph>
<glyph name="pos.43" format="2">
	<advance width="200"/>
	<outline>
		<contour>
			<point x="-100.453" y="0.211" type="line"/>
			<point x="99.547" y="430.211" type="line"/>
			<point x="100.453" y="429.789" type="line"/>
			<point x="-99.547" y="-0.211" type="line"/>
		</contour>
	</outline>
</glyph>
<glyph name="pos.44" format="2">
	<advance width="200"/>
	<outline>
		<contour>
			<point x="-100.455" y="0.207" type="line"/>
			<point x="99.545" y="440.207" type="line"/>
			<point x="100.455" y="439.793" type="line"/>
			<point x="-99.545" y="-0.207" type="line"/>
		</contour>
	</outline>
</glyph>
<glyph name="pos.46" format="2">
	<advance width="200"/>
	<outline>
		<contour>
			<point x="-103.668" y="1.595" type="line"/>
			<point x="96.332" y="461.595" type="line"/>
			<point x="103.668" y="458.405" type="line"/>
			<point x="-96.332" y="-1.595" type="line"/>
		</contour>
	</outline>
</glyph>
<glyph name="pos.48" format="2">
	<advance width="200"/>
	<outline>
		<contour>
			<point x="-100.462" y="0.192" type="line"/>
			<point x="99.538" y="480.192" type="line"/>
			<point x="100.462" y="479.808" type="line"/>
			<point x="-99.538" y="-0.192" type="line"/>
		</contour>
	</outline>
</glyph>
<glyph name="pos.49" format="2">
	<advance width="200"/>
	<outline>
		<contour>
			<point x="-102.315" y="0.945" type="line"/>
			<point x="97.685" y="490.945" type="line"/>
			<point x="102.315" y="489.055" type="line"/>
			<point x="-97.685" y="-0.945" type="line"/>
		</contour>
	</outline>
</glyph>
<glyph name="pos.5" format="2">
	<advance width="200"/>
	<outline>
		<contour>
			<point x="-100.97" y="3.881" type="line"/>
			<point x="99.03" y="53.881" type="line"/>
			<point x="100.97" y="46.119" type="line"/>
			<point x="-99.03" y="-3.881" type="line"/>
		</contour>
	</outline>
</glyph>
<glyph name="pos.50" format="2">
	<advance width="200"/>
	<outline>
		<contour>
			<point x="-103.714" y="1.486" type="line"/>
			<point x="96.286" y="501.486" type="line"/>
			<point x="103.714" y="498.514" type="line"/>
			<point x="-96.286" y="-1.486" type="line"/>
		</contour>
	</outline>
</glyph>
<glyph name="pos.51" format="2">
	<advance width="200"/>
	<outline>
		<contour>
			<point x="-100.465" y="0.183" type="line"/>
			<point x="99.535" y="510.183" type="line"/>
			<point x="100.465" y="509.817" type="line"/>
			<point x="-99.535" y="-0.183" type="line"/>
		</contour>
	</outline>
</glyph>
<glyph name="pos.53" format="2">
	<advance width="200"/>
	<outline>
		<contour>
			<point x="-100.468" y="0.177" type="line"/>
			<point x="99.532" y="530.177" type="line"/>
			<point x="100.468" y="529.823" type="line"/>
			<point x="-99.532" y="-0.177" type="line"/>
		</contour>
	</outline>
</glyph>
<glyph name="pos.54" format="2">
	<advance width="200"/>
	<outline>
		<contour>
			<point x="-102.344" y="0.868" type="line"/>
			<point x="97.656" y="540.868" type="line"/>
			<point x="102.344" y="539.132" type="line"/>
			<point x="-97.656" y="-0.868" type="line"/>
		</contour>
	</outline>
</glyph>
<glyph name="pos.55" format="2">
	<advance width="200"/>
	<outline>
		<contour>
			<point x="-103.759" y="1.367" type="line"/>
			<point x="96.241" y="551.367" type="line"/>
			<point x="103.759" y="548.633" type="line"/>
			<point x="-96.241" y="-1.367" type="line"/>
		</contour>
	</outline>
</glyph>
<glyph name="pos.56" format="2">
	<advance width="200"/>
	<outline>
		<contour>
			<point x="-102.354" y="0.841" type="line"/>
			<point x="97.646" y="560.841" type="line"/>
			<point x="102.354" y="559.159" type="line"/>
			<point x="-97.646" y="-0.841" type="line"/>
		</contour>
	</outline>
</glyph>
<glyph name="pos.57" format="2">
	<advance width="200"/>
	<outline>
		<contour>
			<point x="-100.472" y="0.166" type="line"/>
			<point x="99.528" y="570.166" type="line"/>
			<point x="100.472" y="569.834" type="line"/>
			<point x="-99.528" y="-0.166" type="line"/>
		</contour>
	</outline>
</glyph>
<glyph name="pos.58" format="2">
	<advance width="200"/>
	<outline>
		<contour>
			<point x="-100.473" y="0.163" type="line"/>
			<point x="99.527" y="580.163" type="line"/>
			<point x="100.473" y="579.837" type="line"/>
			<point x="-99.527" y="-0.163" type="line"/>
		</contour>
	</outline>
</glyph>
<glyph name="pos.6" format="2">
	<advance width="200"/>
	<outline>
		<contour>
			<point x="-100.718" y="2.395" type="line"/>
			<point x="99.282" y="62.395" type="line"/>
			<point x="100.718" y="57.605" type="line"/>
			<point x="-99.282" y="-2.395" type="line"/>
		</contour>
	</outline>
</glyph>
<glyph name="pos.60" format="2">
	<advance width="200"/>
	<outline>
		<contour>
			<point x="-103.795" y="1.265" type="line"/>
			<point x="96.205" y="601.265" type="line"/>
			<point x="103.795" y="598.735" type="line"/>
			<point x="-96.205" y="-1.265" type="line"/>
		</contour>
	</outline>
</glyph>
<glyph name="pos.61" format="2">
	<advance width="200"/>
	<outline>
		<contour>
			<point x="-103.801" y="1.246" type="line"/>
			<point x="96.199" y="611.246" type="line"/>
			<point x="103.801" y="608.754" type="line"/>
			<point x="-96.199" y="-1.246" type="line"/>
		</contour>
	</outline>
</glyph>
<glyph name="pos.62" format="2">
	<advance width="200"/>
	<outline>
		<contour>
			<point x="-103.807" y="1.228" type="line"/>
			<point x="96.193" y="621.228" type="line"/>
			<point x="103.807" y="618.772" type="line"/>
			<point x="-96.193" y="-1.228" type="line"/>
		</contour>
	</outline>
</glyph>
<glyph name="pos.63" format="2">
	<advance width="200"/>
	<outline>
		<contour>
			<point x="-103.812" y="1.21" type="line"/>
			<point x="96.188" y="631.21" type="line"/>
			<point x="103.812" y="628.79" type="line"/>
			<point x="-96.188" y="-1.21" type="line"/>
		</contour>
	</outline>
</glyph>
<glyph name="pos.64" format="2">
	<advance width="200"/>
	<outline>
		<contour>
			<point x="-100.477" y="0.149" type="line"/>
			<point x="99.523" y="640.149" type="line"/>
			<point x="100.477" y="639.851" type="line"/>
			<point x="-99.523" y="-0.149" type="line"/>
		</contour>
	</outline>
</glyph>
<glyph name="pos.65" format="2">
	<advance width="200"/>
	<outline>
		<contour>
			<point x="-100.478" y="0.147" type="line"/>
			<point x="99.522" y="650.147" type="line"/>
			<point x="100.478" y="649.853" type="line"/>
			<point x="-99.522" y="-0.147" type="line"/>
		</contour>
	</outline>
</glyph>
<glyph name="pos.66" format="2">
	<advance width="200"/>
	<outline>
		<contour>
			<point x="-100.479" y="0.145" type="line"/>
			<point x="99.521" y="660.145" type="line"/>
			<point x="100.479" y="659.855" type="line"/>
			<point x="-99.521" y="-0.145" type="line"/>
		</contour>
	</outline>
</glyph>
<glyph name="pos.68" format="2">
	<advance width="200"/>
	<outline>
		<contour>
			<point x="-103.837" y="1.129" type="line"/>
			<point x="96.163" y="681.129" type="line"/>
			<point x="103.837" y="678.871" type="line"/>
			<point x="-96.163" y="-1.129" type="line"/>
		</contour>
	</outline>
</glyph>
<glyph name="pos.69" format="2">
	<advance width="200"/>
	<outline>
		<contour>
			<point x="-102.401" y="0.696" type="line"/>
			<point x="97.599" y="690.696" type="line"/>
			<point x="102.401" y="689.304" type="line"/>
			<point x="-97.599" y="-0.696" type="line"/>
		</contour>
	</outline>
</glyph>
<glyph name="pos.7" format="2">
	<advance width="200"/>
	<outline>
		<contour>
			<point x="-101.321" y="3.775" type="line"/>
			<point x="98.679" y="73.775" type="line"/>
			<point x="101.321" y="66.225" type="line"/>
			<point x="-98.679" y="-3.775" type="line"/>
		</contour>
	</outline>
</glyph>
<glyph name="pos.70" format="2">
	<advance width="200"/>
	<outline>
		<contour>
			<point x="-103.846" y="1.099" type="line"/>
			<point x="96.154" y="701.099" type="line"/>
			<point x="103.846" y="698.901" type="line"/>
			<point x="-96.154" y="-1.099" type="line"/>
		</contour>
	</outline>
</glyph>
<glyph name="pos.71" format="2">
	<advance width="200"/>
	<outline>
		<contour>
			<point x="-103.85" y="1.085" type="line"/>
			<point x="96.15" y="711.085" type="line"/>
			<point x="103.85" y="708.915" type="line"/>
			<point x="-96.15" y="-1.085" type="line"/>
		</contour>
	</outline>
</glyph>
<glyph name="pos.74" format="2">
	<advance width="200"/>
	<outline>
		<contour>
			<point x="-100.483" y="0.13" type="line"/>
			<point x="99.517" y="740.13" type="line"/>
			<point x="100.483" y="739.87" type="line"/>
			<point x="-99.517" y="-0.13" type="line"/>
		</contour>
	</outline>
</glyph>
<glyph name="pos.75" format="2">
	<advance width="200"/>
	<outline>
		<contour>
			<point x="-100.483" y="0.129" type="line"/>
			<point x="99.517" y="750.129" type="line"/>
			<point x="100.483" y="749.871" type="line"/>
			<point x="-99.517" y="-0.129" type="line"/>
		</contour>
	</outline>
</glyph>
<glyph name="pos.76" format="2">
	<advance width="200"/>
	<outline>
		<contour>
			<point x="-100.484" y="0.127" type="line"/>
			<point x="99.516" y="760.127" type="line"/>
			<point x="100.484" y="759.873" type="line"/>
			<point x="-99.516" y="-0.127" type="line"/>
		</contour>
	</outline>
</glyph>
<glyph name="pos.78" format="2">
	<advance width="200"/>
	<outline>
		<contour>
			<point x="-102.422" y="0.621" type="line"/>
			<point x="97.578" y="780.621" type="line"/>
			<point x="102.422" y="779.379" type="line"/>
			<point x="-97.578" y="-0.621" type="line"/>
		</contour>
	</outline>
</glyph>
<glyph name="pos.79" format="2">
	<advance width="200"/>
	<outline>
		<contour>
			<point x="-100.485" y="0.123" type="line"/>
			<point x="99.515" y="790.123" type="line"/>
			<point x="100.485" y="789.877" type="line"/>
			<point x="-99.515" y="-0.123" type="line"/>
		</contour>
	</outline>
</glyph>
<glyph name="pos.8" format="2">
	<advance width="200"/>
	<outline>
		<contour>
			<point x="-100.186" y="0.464" type="line"/>
			<point x="99.814" y="80.464" type="line"/>
			<point x="100.186" y="79.536" type="line"/>
			<point x="-99.814" y="-0.464" type="line"/>
		</contour>
	</outline>
</glyph>
<glyph name="pos.80" format="2">
	<advance width="200"/>
	<outline>
		<contour>
			<point x="-103.881" y="0.97" type="line"/>
			<point x="96.119" y="800.97" type="line"/>
			<point x="103.881" y="799.03" type="line"/>
			<point x="-96.119" y="-0.97" type="line"/>
		</contour>
	</outline>
</glyph>
<glyph name="pos.81" format="2">
	<advance width="200"/>
	<outline>
		<contour>
			<point x="-100.485" y="0.12" type="line"/>
			<point x="99.515" y="810.12" type="line"/>
			<point x="100.485" y="809.88" type="line"/>
			<point x="-99.515" y="-0.12" type="line"/>
		</contour>
	</outline>
</glyph>
<glyph name="pos.82" format="2">
	<advance width="200"/>
	<outline>
		<contour>
			<point x="-102.429" y="0.592" type="line"/>
			<point x="97.571" y="820.592" type="line"/>
			<point x="102.429" y="819.408" type="line"/>
			<point x="-97.571" y="-0.592" type="line"/>
		</contour>
	</outline>
</glyph>
<glyph name="pos.84" format="2">
	<advance width="200"/>
	<outline>
		<contour>
			<point x="-100.486" y="0.116" type="line"/>
			<point x="99.514" y="840.116" type="line"/>
			<point x="100.486" y="839.884" type="line"/>
			<point x="-99.514" y="-0.116" type="line"/>
		</contour>
	</outline>
</glyph>
<glyph name="pos.85" format="2">
	<advance width="200"/>
	<outline>
		<contour>
			<point x="-103.894" y="0.916" type="line"/>
			<point x="96.106" y="850.916" type="line"/>
			<point x="103.894" y="849.084" type="line"/>
			<point x="-96.106" y="-0.916" type="line"/>
		</contour>
	</outline>
</glyph>
<glyph name="pos.86" format="2">
	<advance width="200"/>
	<outline>
		<contour>
			<point x="-103.896" y="0.906" type="line"/>
			<point x="96.104" y="860.906" type="line"/>
			<point x="103.896" y="859.094" type="line"/>
			<point x="-96.104" y="-0.906" type="line"/>
		</contour>
	</outline>
</glyph>
<glyph name="pos.87" format="2">
	<advance width="200"/>
	<outline>
		<contour>
			<point x="-103.898" y="0.896" type="line"/>
			<point x="96.102" y="870.896" type="line"/>
			<point x="103.898" y="869.104" type="line"/>
			<point x="-96.102" y="-0.896" type="line"/>
		</contour>
	</outline>
</glyph>
<glyph name="pos.88" format="2">
	<advance width="200"/>
	<outline>
		<contour>
			<point x="-103.901" y="0.886" type="line"/>
			<point x="96.099" y="880.886" type="line"/>
			<point x="103.901" y="879.114" type="line"/>
			<point x="-96.099" y="-0.886" type="line"/>
		</contour>
	</outline>
</glyph>
<glyph name="pos.89" format="2">
	<advance width="200"/>
	<outline>
		<contour>
			<point x="-103.903" y="0.877" type="line"/>
			<point x="96.097" y="890.877" type="line"/>
			<point x="103.903" y="889.123" type="line"/>
			<point x="-96.097" y="-0.877" type="line"/>
		</contour>
	</outline>
</glyph>
<glyph name="pos.9" format="2">
	<advance width="200"/>
	<outline>
		<contour>
			<point x="-101.641" y="3.648" type="line"/>
			<point x="98.359" y="93.648" type="line"/>
			<point x="101.641" y="86.352" type="line"/>
			<point x="-98.359" y="-3.648" type="line"/>
		</contour>
	</outline>
</glyph>
<glyph name="pos.90" format="2">
	<advance width="200"/>
	<outline>
		<contour>
			<point x="-103.905" y="0.868" type="line"/>
			<point x="96.095" y="900.868" type="line"/>
			<point x="103.905" y="899.132" type="line"/>
			<point x="-96.095" y="-0.868" type="line"/>
		</contour>
	</outline>
</glyph>
<glyph name="pos.91" format="2">
	<advance width="200"/>
	<outline>
		<contour>
			<point x="-100.488" y="0.107" type="line"/>
			<point x="99.512" y="910.107" type="line"/>
			<point x="100.488" y="909.893" type="line"/>
			<point x="-99.512" y="-0.107" type="line"/>
		</contour>
	</outline>
</glyph>
<glyph name="pos.92" format="2">
	<advance width="200"/>
	<outline>
		<contour>
			<point x="-100.489" y="0.106" type="line"/>
			<point x="99.511" y="920.106" type="line"/>
			<point x="100.489" y="919.894" type="line"/>
			<point x="-99.511" y="-0.106" type="line"/>
		</contour>
	</outline>
</glyph>
<glyph name="pos.93" format="2">
	<advance width="200"/>
	<outline>
		<contour>
			<point x="-103.911" y="0.841" type="line"/>
			<point x="96.089" y="930.841" type="line"/>
			<point x="103.911" y="929.159" type="line"/>
			<point x="-96.089" y="-0.841" type="line"/>
		</contour>
	</outline>
</glyph>
<glyph name="pos.94" format="2">
	<advance width="200"/>
	<outline>
		<contour>
			<point x="-100.489" y="0.104" type="line"/>
			<point x="99.511" y="940.104" type="line"/>
			<point x="100.489" y="939.896" type="line"/>
			<point x="-99.511" y="-0.104" type="line"/>
		</contour>
	</outline>
</glyph>
<glyph name="pos.95" format="2">
	<advance width="200"/>
	<outline>
		<contour>
			<point x="-103.914" y="0.824" type="line"/>
			<point x="96.086" y="950.824" type="line"/>
			<point x="103.914" y="949.176" type="line"/>
			<point x="-96.086" y="-0.824" type="line"/>
		</contour>
	</outline>
</glyph>
<glyph name="pos.96" format="2">
	<advance width="200"/>
	<outline>
		<contour>
			<point x="-103.916" y="0.816" type="line"/>
			<point x="96.084" y="960.816" type="line"/>
			<point x="103.916" y="959.184" type="line"/>
			<point x="-96.084" y="-0.816" type="line"/>
		</contour>
	</outline>
</glyph>
<glyph name="pos.97" format="2">
	<advance width="200"/>
	<outline>
		<contour>
			<point x="-103.918" y="0.808" type="line"/>
			<point x="96.082" y="970.808" type="line"/>
			<point x="103.918" y="969.192" type="line"/>
			<point x="-96.082" y="-0.808" type="line"/>
		</contour>
	</outline>
</glyph>
<glyph name="pos.98" format="2">
	<advance width="200"/>
	<outline>
		<contour>
			<point x="-100.49" y="0.1" type="line"/>
			<point x="99.51" y="980.1" type="line"/>
			<point x="100.49" y="979.9" type="line"/>
			<point x="-99.51" y="-0.1" type="line"/>
		</contour>
	</outline>
</glyph>
<glyph name="pos.99" format="2">
	<advance width="200"/>
	<outline>
		<contour>
			<point x="-100.49" y="0.099" type="line"/>
			<point x="99.51" y="990.099" type="line"/>
			<point x="100.49" y="989.901" type="line"/>
			<point x="-99.51" y="-0.099" type="line"/>
		</contour>
	</outline>
</glyph>
<glyph name="to-1" format="2">
	<advance width="200"/>
	<outline>
		<contour>
			<point x="-99.9" y="1.998" type="line"/>
			<point x="100.1" y="-8.002" type="line"/>
			<point x="99.9" y="-11.998" type="line"/>
			<point x="-100.1" y="-1.998" type="line"/>
		</contour>
	</outline>
</glyph>
<glyph name="to-101" format="2">
	<advance width="200"/>
	<outline>
		<contour>
			<point x="-98.038" y="0.388" type="line"/>
			<point x="101.962" y="-1009.612" type="line"/>
			<point x="98.038" y="-1010.388" type="line"/>
			<point x="-101.962" y="-0.388" type="line"/>
		</contour>
	</outline>
</glyph>
<glyph name="to-102" format="2">
	<advance width="200"/>
	<outline>
		<contour>
			<point x="-98.037" y="0.385" type="line"/>
			<point x="101.963" y="-1019.615" type="line"/>
			<point x="98.037" y="-1020.385" type="line"/>
			<point x="-101.963" y="-0.385" type="line"/>
		</contour>
	</outline>
</glyph>
<glyph name="to-103" format="2">
	<advance width="200"/>
	<outline>
		<contour>
			<point x="-98.037" y="0.381" type="line"/>
			<point x="101.963" y="-1029.619" type="line"/>
			<point x="98.037" y="-1030.381" type="line"/>
			<point x="-101.963" y="-0.381" type="line"/>
		</contour>
	</outline>
</glyph>
<glyph name="to-104" format="2">
	<advance width="200"/>
	<outline>
		<contour>
			<point x="-98.036" y="0.378" type="line"/>
			<point x="101.964" y="-1039.622" type="line"/>
			<point x="98.036" y="-1040.378" type="line"/>
			<point x="-101.964" y="-0.378" type="line"/>
		</contour>
	</outline>
</glyph>
<glyph name="to-105" format="2">
	<advance width="200"/>
	<outline>
		<contour>
			<point x="-98.035" y="0.374" type="line"/>
			<point x="101.965" y="-1049.626" type="line"/>
			<point x="98.035" y="-1050.374" type="line"/>
			<point x="-101.965" y="-0.374" type="line"/>
		</contour>
	</outline>
</glyph>
<glyph name="to-106" format="2">
	<advance width="200"/>
	<outline>
		<contour>
			<point x="-98.035" y="0.371" type="line"/>
			<point x="101.965" y="-1059.629" type="line"/>
			<point x="98.035" y="-1060.371" type="line"/>
			<point x="-101.965" y="-0.371" type="line"/>
		</contour>
	</outline>
</glyph>
<glyph name="to-108" format="2">
	<advance width="200"/>
	<outline>
		<contour>
			<point x="-98.033" y="0.364" type="line"/>
			<point x="101.967" y="-1079.636" type="line"/>
			<point x="98.033" y="-1080.364" type="line"/>
			<point x="-101.967" y="-0.364" type="line"/>
		</contour>
	</outline>
</glyph>
<glyph name="to-109" format="2">
	<advance width="200"/>
	<outline>
		<contour>
			<point x="-98.033" y="0.361" type="line"/>
			<point x="101.967" y="-1089.639" type="line"/>
			<point x="98.033" y="-1090.361" type="line"/>
			<point x="-101.967" y="-0.361" type="line"/>
		</contour>
	</outline>
</glyph>
<glyph name="to-110" format="2">
	<advance width="500"/>
	<outline>
		<contour>
			<point x="-250" y="0" type="line"/>
			<point x="250" y="-1100" type="line"/>
			<point x="250" y="-1100" type="line"/>
			<point x="-250" y="0" type="line"/>
		</contour>
	</outline>
</glyph>
<glyph name="to-112" format="2">
	<advance width="200"/>
	<outline>
		<contour>
			<point x="-98.031" y="0.352" type="line"/>
			<point x="101.969" y="-1119.648" type="line"/>
			<point x="98.031" y="-1120.352" type="line"/>
			<point x="-101.969" y="-0.352" type="line"/>
		</contour>
	</outline>
</glyph>
<glyph name="to-116" format="2">
	<advance width="200"/>
	<outline>
		<contour>
			<point x="-98.029" y="0.34" type="line"/>
			<point x="101.971" y="-1159.66" type="line"/>
			<point x="98.029" y="-1160.34" type="line"/>
			<point x="-101.971" y="-0.34" type="line"/>
		</contour>
	</outline>
</glyph>
<glyph name="to-117" format="2">
	<advance width="200"/>
	<outline>
		<contour>
			<point x="-97.536" y="0.421" type="line"/>
			<point x="102.464" y="-1169.579" type="line"/>
			<point x="97.536" y="-1170.421" type="line"/>
			<point x="-102.464" y="-0.421" type="line"/>
		</contour>
	</outline>
</glyph>
<glyph name="to-119" format="2">
	<advance width="100"/>
	<outline>
		<contour>
			<point x="-47.509" y="0.209" type="line"/>
			<point x="52.491" y="-1189.791" type="line"/>
			<point x="47.509" y="-1190.209" type="line"/>
			<point x="-52.491" y="-0.209" type="line"/>
		</contour>
	</outline>
</glyph>
<glyph name="to-120" format="2">
	<advance width="500"/>
	<outline>
		<contour>
			<point x="-250" y="0" type="line"/>
			<point x="250" y="-1200" type="line"/>
			<point x="250" y="-1200" type="line"/>
			<point x="-250" y="0" type="line"/>
		</contour>
	</outline>
</glyph>
<glyph name="to-121" format="2">
	<advance width="200"/>
	<outline>
		<contour>
			<point x="-98.027" y="0.326" type="line"/>
			<point x="101.973" y="-1209.674" type="line"/>
			<point x="98.027" y="-1210.326" type="line"/>
			<point x="-101.973" y="-0.326" type="line"/>
		</contour>
	</outline>
</glyph>
<glyph name="to-122" format="2">
	<advance width="200"/>
	<outline>
		<contour>
			<point x="-98.026" y="0.324" type="line"/>
			<point x="101.974" y="-1219.676" type="line"/>
			<point x="98.026" y="-1220.324" type="line"/>
			<point x="-101.974" y="-0.324" type="line"/>
		</contour>
	</outline>
</glyph>
<glyph name="to-123" format="2">
	<advance width="200"/>
	<outline>
		<contour>
			<point x="-98.026" y="0.321" type="line"/>
			<point x="101.974" y="-1229.679" type="line"/>
			<point x="98.026" y="-1230.321" type="line"/>
			<point x="-101.974" y="-0.321" type="line"/>
		</contour>
	</outline>
</glyph>
<glyph name="to-124" format="2">
	<advance width="200"/>
	<outline>
		<contour>
			<point x="-97.532" y="0.398" type="line"/>
			<point x="102.468" y="-1239.602" type="line"/>
			<point x="97.532" y="-1240.398" type="line"/>
			<point x="-102.468" y="-0.398" type="line"/>
		</contour>
	</outline>
</glyph>
<glyph name="to-125" format="2">
	<advance width="200"/>
	<outline>
		<contour>
			<point x="-98.025" y="0.316" type="line"/>
			<point x="101.975" y="-1249.684" type="line"/>
			<point x="98.025" y="-1250.316" type="line"/>
			<point x="-101.975" y="-0.316" type="line"/>
		</contour>
	</outline>
</glyph>
<glyph name="to-127" format="2">
	<advance width="200"/>
	<outline>
		<contour>
			<point x="-98.024" y="0.311" type="line"/>
			<point x="101.976" y="-1269.689" type="line"/>
			<point x="98.024" y="-1270.311" type="line"/>
			<point x="-101.976" y="-0.311" type="line"/>
		</contour>
	</outline>
</glyph>
<glyph name="to-16" format="2">
	<advance width="200"/>
	<outline>
		<contour>
			<point x="-98.751" y="1.562" type="line"/>
			<point x="101.249" y="-158.438" type="line"/>
			<point x="98.751" y="-161.562" type="line"/>
			<point x="-101.249" y="-1.562" type="line"/>
		</contour>
	</outline>
</glyph>
<glyph name="to-17" format="2">
	<advance width="100"/>
	<outline>
		<contour>
			<point x="-47.845" y="1.268" type="line"/>
			<point x="52.155" y="-168.732" type="line"/>
			<point x="47.845" y="-171.268" type="line"/>
			<point x="-52.155" y="-1.268" type="line"/>
		</contour>
	</outline>
</glyph>
<glyph name="to-18" format="2">
	<advance width="200"/>
	<outline>
		<contour>
			<point x="-98.662" y="1.487" type="line"/>
			<point x="101.338" y="-178.513" type="line"/>
			<point x="98.662" y="-181.487" type="line"/>
			<point x="-101.338" y="-1.487" type="line"/>
		</contour>
	</outline>
</glyph>
<glyph name="to-2" format="2">
	<advance width="200"/>
	<outline>
		<contour>
			<point x="-99.751" y="2.488" type="line"/>
			<point x="100.249" y="-17.512" type="line"/>
			<point x="99.751" y="-22.488" type="line"/>
			<point x="-100.249" y="-2.488" type="line"/>
		</contour>
	</outline>
</glyph>
<glyph name="to-20" format="2">
	<advance width="500"/>
	<outline>
		<contour>
			<point x="-250" y="0" type="line"/>
			<point x="250" y="-200" type="line"/>
			<point x="250" y="-200" type="line"/>
			<point x="-250" y="0" type="line"/>
		</contour>
	</outline>
</glyph>
<glyph name="to-22" format="2">
	<advance width="200"/>
	<outline>
		<contour>
			<point x="-98.15" y="1.682" type="line"/>
			<point x="101.85" y="-218.318" type="line"/>
			<point x="98.15" y="-221.682" type="line"/>
			<point x="-101.85" y="-1.682" type="line"/>
		</contour>
	</outline>
</glyph>
<glyph name="to-23" format="2">
	<advance width="500"/>
	<outline>
		<contour>
			<point x="-250" y="0" type="line"/>
			<point x="250" y="-230" type="line"/>
			<point x="250" y="-230" type="line"/>
			<point x="-250" y="0" type="line"/>
		</contour>
	</outline>
</glyph>
<glyph name="to-24" format="2">
	<advance width="200"/>
	<outline>
		<contour>
			<point x="-98.464" y="1.28" type="line"/>
			<point x="101.536" y="-238.72" type="line"/>
			<point x="98.464" y="-241.28" type="line"/>
			<point x="-101.536" y="-1.28" type="line"/>
		</contour>
	</outline>
</glyph>
<glyph name="to-25" format="2">
	<advance width="200"/>
	<outline>
		<contour>
			<point x="-98.438" y="1.249" type="line"/>
			<point x="101.562" y="-248.751" type="line"/>
			<point x="98.438" y="-251.249" type="line"/>
			<point x="-101.562" y="-1.249" type="line"/>
		</contour>
	</outline>
</glyph>
<glyph name="to-26" format="2">
	<advance width="200"/>
	<outline>
		<contour>
			<point x="-98.415" y="1.219" type="line"/>
			<point x="101.585" y="-258.781" type="line"/>
			<point x="98.415" y="-261.219" type="line"/>
			<point x="-101.585" y="-1.219" type="line"/>
		</contour>
	</outline>
</glyph>
<glyph name="to-27" format="2">
	<advance width="500"/>
	<outline>
		<contour>
			<point x="-250" y="0" type="line"/>
			<point x="250" y="-270" type="line"/>
			<point x="250" y="-270" type="line"/>
			<point x="-250" y="0" type="line"/>
		</contour>
	</outline>
</glyph>
<glyph name="to-28" format="2">
	<advance width="500"/>
	<outline>
		<contour>
			<point x="-250" y="0" type="line"/>
			<point x="250" y="-280" type="line"/>
			<point x="250" y="-280" type="line"/>
			<point x="-250" y="0" type="line"/>
		</contour>
	</outline>
</glyph>
<glyph name="to-29" format="2">
	<advance width="200"/>
	<outline>
		<contour>
			<point x="-98.354" y="1.135" type="line"/>
			<point x="101.646" y="-288.865" type="line"/>
			<point x="98.354" y="-291.135" type="line"/>
			<point x="-101.646" y="-1.135" type="line"/>
		</contour>
	</outline>
</glyph>
<glyph name="to-30" format="2">
	<advance width="200"/>
	<outline>
		<contour>
			<point x="-97.92" y="1.387" type="line"/>
			<point x="102.08" y="-298.613" type="line"/>
			<point x="97.92" y="-301.387" type="line"/>
			<point x="-102.08" y="-1.387" type="line"/>
		</contour>
	</outline>
</glyph>
<glyph name="to-32" format="2">
	<advance width="200"/>
	<outline>
		<contour>
			<point x="-97.88" y="1.325" type="line"/>
			<point x="102.12" y="-318.675" type="line"/>
			<point x="97.88" y="-321.325" type="line"/>
			<point x="-102.12" y="-1.325" type="line"/>
		</contour>
	</outline>
</glyph>
<glyph name="to-33" format="2">
	<advance width="200"/>
	<outline>
		<contour>
			<point x="-98.29" y="1.037" type="line"/>
			<point x="101.71" y="-328.963" type="line"/>
			<point x="98.29" y="-331.037" type="line"/>
			<point x="-101.71" y="-1.037" type="line"/>
		</contour>
	</outline>
</glyph>
<glyph name="to-35" format="2">
	<advance width="200"/>
	<outline>
		<contour>
			<point x="-98.264" y="0.992" type="line"/>
			<point x="101.736" y="-349.008" type="line"/>
			<point x="98.264" y="-350.992" type="line"/>
			<point x="-101.736" y="-0.992" type="line"/>
		</contour>
	</outline>
</glyph>
<glyph name="to-37" format="2">
	<advance width="100"/>
	<outline>
		<contour>
			<point x="-47.587" y="0.652" type="line"/>
			<point x="52.413" y="-369.348" type="line"/>
			<point x="47.587" y="-370.652" type="line"/>
			<point x="-52.413" y="-0.652" type="line"/>
		</contour>
	</outline>
</glyph>
<glyph name="to-38" format="2">
	<advance width="200"/>
	<outline>
		<contour>
			<point x="-97.788" y="1.164" type="line"/>
			<point x="102.212" y="-378.836" type="line"/>
			<point x="97.788" y="-381.164" type="line"/>
			<point x="-102.212" y="-1.164" type="line"/>
		</contour>
	</outline>
</glyph>
<glyph name="to-39" format="2">
	<advance width="200"/>
	<outline>
		<contour>
			<point x="-98.22" y="0.913" type="line"/>
			<point x="101.78" y="-389.087" type="line"/>
			<point x="98.22" y="-390.913" type="line"/>
			<point x="-101.78" y="-0.913" type="line"/>
		</contour>
	</outline>
</glyph>
<glyph name="to-4" format="2">
	<advance width="500"/>
	<outline>
		<contour>
			<point x="-250" y="0" type="line"/>
			<point x="250" y="-40" type="line"/>
			<point x="250" y="-40" type="line"/>
			<point x="-250" y="0" type="line"/>
		</contour>
	</outline>
</glyph>
<glyph name="to-41" format="2">
	<advance width="200"/>
	<outline>
		<contour>
			<point x="-98.202" y="0.877" type="line"/>
			<point x="101.798" y="-409.123" type="line"/>
			<point x="98.202" y="-410.877" type="line"/>
			<point x="-101.798" y="-0.877" type="line"/>
		</contour>
	</outline>
</glyph>
<glyph name="to-42" format="2">
	<advance width="200"/>
	<outline>
		<contour>
			<point x="-98.194" y="0.86" type="line"/>
			<point x="101.806" y="-419.14" type="line"/>
			<point x="98.194" y="-420.86" type="line"/>
			<point x="-101.806" y="-0.86" type="line"/>
		</contour>
	</outline>
</glyph>
<glyph name="to-45" format="2">
	<advance width="200"/>
	<outline>
		<contour>
			<point x="-98.172" y="0.812" type="line"/>
			<point x="101.828" y="-449.188" type="line"/>
			<point x="98.172" y="-450.812" type="line"/>
			<point x="-101.828" y="-0.812" type="line"/>
		</contour>
	</outline>
</glyph>
<glyph name="to-46" format="2">
	<advance width="200"/>
	<outline>
		<contour>
			<point x="-98.166" y="0.797" type="line"/>
			<point x="101.834" y="-459.203" type="line"/>
			<point x="98.166" y="-460.797" type="line"/>
			<point x="-101.834" y="-0.797" type="line"/>
		</contour>
	</outline>
</glyph>
<glyph name="to-47" format="2">
	<advance width="200"/>
	<outline>
		<contour>
			<point x="-97.7" y="0.979" type="line"/>
			<point x="102.3" y="-469.021" type="line"/>
			<point x="97.7" y="-470.979" type="line"/>
			<point x="-102.3" y="-0.979" type="line"/>
		</contour>
	</outline>
</glyph>
<glyph name="to-48" format="2">
	<advance width="200"/>
	<outline>
		<contour>
			<point x="-98.154" y="0.769" type="line"/>
			<point x="101.846" y="-479.231" type="line"/>
			<point x="98.154" y="-480.769" type="line"/>
			<point x="-101.846" y="-0.769" type="line"/>
		</contour>
	</outline>
</glyph>
<glyph name="to-5" format="2">
	<advance width="200"/>
	<outline>
		<contour>
			<point x="-99.394" y="2.425" type="line"/>
			<point x="100.606" y="-47.575" type="line"/>
			<point x="99.394" y="-52.425" type="line"/>
			<point x="-100.606" y="-2.425" type="line"/>
		</contour>
	</outline>
</glyph>
<glyph name="to-50" format="2">
	<advance width="200"/>
	<outline>
		<contour>
			<point x="-98.143" y="0.743" type="line"/>
			<point x="101.857" y="-499.257" type="line"/>
			<point x="98.143" y="-500.743" type="line"/>
			<point x="-101.857" y="-0.743" type="line"/>
		</contour>
	</outline>
</glyph>
<glyph name="to-51" format="2">
	<advance width="200"/>
	<outline>
		<contour>
			<point x="-98.138" y="0.73" type="line"/>
			<point x="101.862" y="-509.27" type="line"/>
			<point x="98.138" y="-510.73" type="line"/>
			<point x="-101.862" y="-0.73" type="line"/>
		</contour>
	</outline>
</glyph>
<glyph name="to-53" format="2">
	<advance width="200"/>
	<outline>
		<contour>
			<point x="-98.129" y="0.706" type="line"/>
			<point x="101.871" y="-529.294" type="line"/>
			<point x="98.129" y="-530.706" type="line"/>
			<point x="-101.871" y="-0.706" type="line"/>
		</contour>
	</outline>
</glyph>
<glyph name="to-55" format="2">
	<advance width="500"/>
	<outline>
		<contour>
			<point x="-250" y="0" type="line"/>
			<point x="250" y="-550" type="line"/>
			<point x="250" y="-550" type="line"/>
			<point x="-250" y="0" type="line"/>
		</contour>
	</outline>
</glyph>
<glyph name="to-57" format="2">
	<advance width="200"/>
	<outline>
		<contour>
			<point x="-98.113" y="0.662" type="line"/>
			<point x="101.887" y="-569.338" type="line"/>
			<point x="98.113" y="-570.662" type="line"/>
			<point x="-101.887" y="-0.662" type="line"/>
		</contour>
	</outline>
</glyph>
<glyph name="to-58" format="2">
	<advance width="100"/>
	<outline>
		<contour>
			<point x="-47.536" y="0.425" type="line"/>
			<point x="52.464" y="-579.575" type="line"/>
			<point x="47.536" y="-580.425" type="line"/>
			<point x="-52.464" y="-0.425" type="line"/>
		</contour>
	</outline>
</glyph>
<glyph name="to-6" format="2">
	<advance width="200"/>
	<outline>
		<contour>
			<point x="-99.425" y="1.916" type="line"/>
			<point x="100.575" y="-58.084" type="line"/>
			<point x="99.425" y="-61.916" type="line"/>
			<point x="-100.575" y="-1.916" type="line"/>
		</contour>
	</outline>
</glyph>
<glyph name="to-60" format="2">
	<advance width="200"/>
	<outline>
		<contour>
			<point x="-97.628" y="0.791" type="line"/>
			<point x="102.372" y="-599.209" type="line"/>
			<point x="97.628" y="-600.791" type="line"/>
			<point x="-102.372" y="-0.791" type="line"/>
		</contour>
	</outline>
</glyph>
<glyph name="to-61" format="2">
	<advance width="200"/>
	<outline>
		<contour>
			<point x="-98.1" y="0.623" type="line"/>
			<point x="101.9" y="-609.377" type="line"/>
			<point x="98.1" y="-610.623" type="line"/>
			<point x="-101.9" y="-0.623" type="line"/>
		</contour>
	</outline>
</glyph>
<glyph name="to-62" format="2">
	<advance width="200"/>
	<outline>
		<contour>
			<point x="-98.097" y="0.614" type="line"/>
			<point x="101.903" y="-619.386" type="line"/>
			<point x="98.097" y="-620.614" type="line"/>
			<point x="-101.903" y="-0.614" type="line"/>
		</contour>
	</outline>
</glyph>
<glyph name="to-66" format="2">
	<advance width="200"/>
	<outline>
		<contour>
			<point x="-98.086" y="0.58" type="line"/>
			<point x="101.914" y="-659.42" type="line"/>
			<point x="98.086" y="-660.58" type="line"/>
			<point x="-101.914" y="-0.58" type="line"/>
		</contour>
	</outline>
</glyph>
<glyph name="to-68" format="2">
	<advance width="500"/>
	<outline>
		<contour>
			<point x="-250" y="0" type="line"/>
			<point x="250" y="-680" type="line"/>
			<point x="250" y="-680" type="line"/>
			<point x="-250" y="0" type="line"/>
		</contour>
	</outline>
</glyph>
<glyph name="to-69" format="2">
	<advance width="200"/>
	<outline>
		<contour>
			<point x="-98.079" y="0.557" type="line"/>
			<point x="101.921" y="-689.443" type="line"/>
			<point x="98.079" y="-690.557" type="line"/>
			<point x="-101.921" y="-0.557" type="line"/>
		</contour>
	</outline>
</glyph>
<glyph name="to-7" format="2">
	<advance width="200"/>
	<outline>
		<contour>
			<point x="-99.339" y="1.888" type="line"/>
			<point x="100.661" y="-68.112" type="line"/>
			<point x="99.339" y="-71.888" type="line"/>
			<point x="-100.661" y="-1.888" type="line"/>
		</contour>
	</outline>
</glyph>
<glyph name="to-71" format="2">
	<advance width="200"/>
	<outline>
		<contour>
			<point x="-98.075" y="0.542" type="line"/>
			<point x="101.925" y="-709.458" type="line"/>
			<point x="98.075" y="-710.542" type="line"/>
			<point x="-101.925" y="-0.542" type="line"/>
		</contour>
	</outline>
</glyph>
<glyph name="to-72" format="2">
	<advance width="200"/>
	<outline>
		<contour>
			<point x="-97.591" y="0.669" type="line"/>
			<point x="102.409" y="-719.331" type="line"/>
			<point x="97.591" y="-720.669" type="line"/>
			<point x="-102.409" y="-0.669" type="line"/>
		</contour>
	</outline>
</glyph>
<glyph name="to-73" format="2">
	<advance width="500"/>
	<outline>
		<contour>
			<point x="-250" y="0" type="line"/>
			<point x="250" y="-730" type="line"/>
			<point x="250" y="-730" type="line"/>
			<point x="-250" y="0" type="line"/>
		</contour>
	</outline>
</glyph>
<glyph name="to-74" format="2">
	<advance width="200"/>
	<outline>
		<contour>
			<point x="-97.587" y="0.652" type="line"/>
			<point x="102.413" y="-739.348" type="line"/>
			<point x="97.587" y="-740.652" type="line"/>
			<point x="-102.413" y="-0.652" type="line"/>
		</contour>
	</outline>
</glyph>
<glyph name="to-76" format="2">
	<advance width="200"/>
	<outline>
		<contour>
			<point x="-98.066" y="0.509" type="line"/>
			<point x="101.934" y="-759.491" type="line"/>
			<point x="98.066" y="-760.509" type="line"/>
			<point x="-101.934" y="-0.509" type="line"/>
		</contour>
	</outline>
</glyph>
<glyph name="to-77" format="2">
	<advance width="200"/>
	<outline>
		<contour>
			<point x="-98.064" y="0.503" type="line"/>
			<point x="101.936" y="-769.497" type="line"/>
			<point x="98.064" y="-770.503" type="line"/>
			<point x="-101.936" y="-0.503" type="line"/>
		</contour>
	</outline>
</glyph>
<glyph name="to-78" format="2">
	<advance width="200"/>
	<outline>
		<contour>
			<point x="-98.063" y="0.497" type="line"/>
			<point x="101.937" y="-779.503" type="line"/>
			<point x="98.063" y="-780.497" type="line"/>
			<point x="-101.937" y="-0.497" type="line"/>
		</contour>
	</outline>
</glyph>
<glyph name="to-8" format="2">
	<advance width="200"/>
	<outline>
		<contour>
			<point x="-99.257" y="1.857" type="line"/>
			<point x="100.743" y="-78.143" type="line"/>
			<point x="99.257" y="-81.857" type="line"/>
			<point x="-100.743" y="-1.857" type="line"/>
		</contour>
	</outline>
</glyph>
<glyph name="to-81" format="2">
	<advance width="200"/>
	<outline>
		<contour>
			<point x="-98.058" y="0.479" type="line"/>
			<point x="101.942" y="-809.521" type="line"/>
			<point x="98.058" y="-810.479" type="line"/>
			<point x="-101.942" y="-0.479" type="line"/>
		</contour>
	</outline>
</glyph>
<glyph name="to-83" format="2">
	<advance width="200"/>
	<outline>
		<contour>
			<point x="-98.056" y="0.469" type="line"/>
			<point x="101.944" y="-829.531" type="line"/>
			<point x="98.056" y="-830.469" type="line"/>
			<point x="-101.944" y="-0.469" type="line"/>
		</contour>
	</outline>
</glyph>
<glyph name="to-85" format="2">
	<advance width="200"/>
	<outline>
		<contour>
			<point x="-97.566" y="0.573" type="line"/>
			<point x="102.434" y="-849.427" type="line"/>
			<point x="97.566" y="-850.573" type="line"/>
			<point x="-102.434" y="-0.573" type="line"/>
		</contour>
	</outline>
</glyph>
<glyph name="to-87" format="2">
	<advance width="200"/>
	<outline>
		<contour>
			<point x="-98.051" y="0.448" type="line"/>
			<point x="101.949" y="-869.552" type="line"/>
			<point x="98.051" y="-870.448" type="line"/>
			<point x="-101.949" y="-0.448" type="line"/>
		</contour>
	</outline>
</glyph>
<glyph name="to-88" format="2">
	<advance width="200"/>
	<outline>
		<contour>
			<point x="-98.05" y="0.443" type="line"/>
			<point x="101.95" y="-879.557" type="line"/>
			<point x="98.05" y="-880.443" type="line"/>
			<point x="-101.95" y="-0.443" type="line"/>
		</contour>
	</outline>
</glyph>
<glyph name="to-9" format="2">
	<advance width="200"/>
	<outline>
		<contour>
			<point x="-99.179" y="1.824" type="line"/>
			<point x="100.821" y="-88.176" type="line"/>
			<point x="99.179" y="-91.824" type="line"/>
			<point x="-100.821" y="-1.824" type="line"/>
		</contour>
	</outline>
</glyph>
<glyph name="to-90" format="2">
	<advance width="200"/>
	<outline>
		<contour>
			<point x="-97.56" y="0.542" type="line"/>
			<point x="102.44" y="-899.458" type="line"/>
			<point x="97.56" y="-900.542" type="line"/>
			<point x="-102.44" y="-0.542" type="line"/>
		</contour>
	</outline>
</glyph>
<glyph name="to-91" format="2">
	<advance width="200"/>
	<outline>
		<contour>
			<point x="-98.047" y="0.429" type="line"/>
			<point x="101.953" y="-909.571" type="line"/>
			<point x="98.047" y="-910.429" type="line"/>
			<point x="-101.953" y="-0.429" type="line"/>
		</contour>
	</outline>
</glyph>
<glyph name="to-92" format="2">
	<advance width="200"/>
	<outline>
		<contour>
			<point x="-98.046" y="0.425" type="line"/>
			<point x="101.954" y="-919.575" type="line"/>
			<point x="98.046" y="-920.425" type="line"/>
			<point x="-101.954" y="-0.425" type="line"/>
		</contour>
	</outline>
</glyph>
<glyph name="to-93" format="2">
	<advance width="200"/>
	<outline>
		<contour>
			<point x="-97.556" y="0.526" type="line"/>
			<point x="102.444" y="-929.474" type="line"/>
			<point x="97.556" y="-930.526" type="line"/>
			<point x="-102.444" y="-0.526" type="line"/>
		</contour>
	</outline>
</glyph>
<glyph name="to-95" format="2">
	<advance width="200"/>
	<outline>
		<contour>
			<point x="-98.043" y="0.412" type="line"/>
			<point x="101.957" y="-949.588" type="line"/>
			<point x="98.043" y="-950.412" type="line"/>
			<point x="-101.957" y="-0.412" type="line"/>
		</contour>
	</outline>
</glyph>
<glyph name="to-96" format="2">
	<advance width="200"/>
	<outline>
		<contour>
			<point x="-98.042" y="0.408" type="line"/>
			<point x="101.958" y="-959.592" type="line"/>
			<point x="98.042" y="-960.408" type="line"/>
			<point x="-101.958" y="-0.408" type="line"/>
		</contour>
	</outline>
</glyph>
<glyph name="to-97" format="2">
	<advance width="200"/>
	<outline>
		<contour>
			<point x="-98.041" y="0.404" type="line"/>
			<point x="101.959" y="-969.596" type="line"/>
			<point x="98.041" y="-970.404" type="line"/>
			<point x="-101.959" y="-0.404" type="line"/>
		</contour>
	</outline>
</glyph>
<glyph name="to-98" format="2">
	<advance width="200"/>
	<outline>
		<contour>
			<point x="-97.55" y="0.5" type="line"/>
			<point x="102.45" y="-979.5" type="line"/>
			<point x="97.55" y="-980.5" type="line"/>
			<point x="-102.45" y="-0.5" type="line"/>
		</contour>
	</outline>
</glyph>
<glyph name="to0" format="2">
	<advance width="500"/>
	<outline>
		<contour>
			<point x="-250" y="1" type="line"/>
			<point x="250" y="1" type="line"/>
			<point x="250" y="-1" type="line"/>
			<point x="-250" y="-1" type="line"/>
		</contour>
	</outline>
</glyph>
<glyph name="to10" format="2">
	<advance width="200"/>
	<outline>
		<contour>
			<point x="-100.894" y="1.789" type="line"/>
			<point x="99.106" y="101.789" type="line"/>
			<point x="100.894" y="98.211" type="line"/>
			<point x="-99.106" y="-1.789" type="line"/>
		</contour>
	</outline>
</glyph>
<glyph name="to100" format="2">
	<advance width="200"/>
	<outline>
		<contour>
			<point x="-101.961" y="0.392" type="line"/>
			<point x="98.039" y="1000.392" type="line"/>
			<point x="101.961" y="999.608" type="line"/>
			<point x="-98.039" y="-0.392" type="line"/>
		</contour>
	</outline>
</glyph>
<glyph name="to101" format="2">
	<advance width="200"/>
	<outline>
		<contour>
			<point x="-102.452" y="0.486" type="line"/>
			<point x="97.548" y="1010.486" type="line"/>
			<point x="102.452" y="1009.514" type="line"/>
			<point x="-97.548" y="-0.486" type="line"/>
		</contour>
	</outline>
</glyph>
<glyph name="to103" format="2">
	<advance width="500"/>
	<outline>
		<contour>
			<point x="-250" y="0" type="line"/>
			<point x="250" y="1030" type="line"/>
			<point x="250" y="1030" type="line"/>
			<point x="-250" y="0" type="line"/>
		</contour>
	</outline>
</glyph>
<glyph name="to107" format="2">
	<advance width="200"/>
	<outline>
		<contour>
			<point x="-101.966" y="0.367" type="line"/>
			<point x="98.034" y="1070.367" type="line"/>
			<point x="101.966" y="1069.633" type="line"/>
			<point x="-98.034" y="-0.367" type="line"/>
		</contour>
	</outline>
</glyph>
<glyph name="to11" format="2">
	<advance width="200"/>
	<outline>
		<contour>
			<point x="-100.964" y="1.752" type="line"/>
			<point x="99.036" y="111.752" type="line"/>
			<point x="100.964" y="108.248" type="line"/>
			<point x="-99.036" y="-1.752" type="line"/>
		</contour>
	</outline>
</glyph>
<glyph name="to111" format="2">
	<advance width="200"/>
	<outline>
		<contour>
			<point x="-101.968" y="0.355" type="line"/>
			<point x="98.032" y="1110.355" type="line"/>
			<point x="101.968" y="1109.645" type="line"/>
			<point x="-98.032" y="-0.355" type="line"/>
		</contour>
	</outline>
</glyph>
<glyph name="to112" format="2">
	<advance width="200"/>
	<outline>
		<contour>
			<point x="-102.461" y="0.439" type="line"/>
			<point x="97.539" y="1120.439" type="line"/>
			<point x="102.461" y="1119.561" type="line"/>
			<point x="-97.539" y="-0.439" type="line"/>
		</contour>
	</outline>
</glyph>
<glyph name="to113" format="2">
	<advance width="200"/>
	<outline>
		<contour>
			<point x="-101.969" y="0.349" type="line"/>
			<point x="98.031" y="1130.349" type="line"/>
			<point x="101.969" y="1129.651" type="line"/>
			<point x="-98.031" y="-0.349" type="line"/>
		</contour>
	</outline>
</glyph>
<glyph name="to114" format="2">
	<advance width="200"/>
	<outline>
		<contour>
			<point x="-101.97" y="0.346" type="line"/>
			<point x="98.03" y="1140.346" type="line"/>
			<point x="101.97" y="1139.654" type="line"/>
			<point x="-98.03" y="-0.346" type="line"/>
		</contour>
	</outline>
</glyph>
<glyph name="to115" format="2">
	<advance width="200"/>
	<outline>
		<contour>
			<point x="-101.97" y="0.343" type="line"/>
			<point x="98.03" y="1150.343" type="line"/>
			<point x="101.97" y="1149.657" type="line"/>
			<point x="-98.03" y="-0.343" type="line"/>
		</contour>
	</outline>
</glyph>
<glyph name="to117" format="2">
	<advance width="200"/>
	<outline>
		<contour>
			<point x="-101.971" y="0.337" type="line"/>
			<point x="98.029" y="1170.337" type="line"/>
			<point x="101.971" y="1169.663" type="line"/>
			<point x="-98.029" y="-0.337" type="line"/>
		</contour>
	</outline>
</glyph>
<glyph name="to118" format="2">
	<advance width="200"/>
	<outline>
		<contour>
			<point x="-101.972" y="0.334" type="line"/>
			<point x="98.028" y="1180.334" type="line"/>
			<point x="101.972" y="1179.666" type="line"/>
			<point x="-98.028" y="-0.334" type="line"/>
		</contour>
	</outline>
</glyph>
<glyph name="to119" format="2">
	<advance width="200"/>
	<outline>
		<contour>
			<point x="-101.972" y="0.331" type="line"/>
			<point x="98.028" y="1190.331" type="line"/>
			<point x="101.972" y="1189.669" type="line"/>
			<point x="-98.028" y="-0.331" type="line"/>
		</contour>
	</outline>
</glyph>
<glyph name="to120" format="2">
	<advance width="200"/>
	<outline>
		<contour>
			<point x="-101.973" y="0.329" type="line"/>
			<point x="98.027" y="1200.329" type="line"/>
			<point x="101.973" y="1199.671" type="line"/>
			<point x="-98.027" y="-0.329" type="line"/>
		</contour>
	</outline>
</glyph>
<glyph name="to121" format="2">
	<advance width="200"/>
	<outline>
		<contour>
			<point x="-102.467" y="0.408" type="line"/>
			<point x="97.533" y="1210.408" type="line"/>
			<point x="102.467" y="1209.592" type="line"/>
			<point x="-97.533" y="-0.408" type="line"/>
		</contour>
	</outline>
</glyph>
<glyph name="to126" format="2">
	<advance width="200"/>
	<outline>
		<contour>
			<point x="-101.975" y="0.314" type="line"/>
			<point x="98.025" y="1260.314" type="line"/>
			<point x="101.975" y="1259.686" type="line"/>
			<point x="-98.025" y="-0.314" type="line"/>
		</contour>
	</outline>
</glyph>
<glyph name="to127" format="2">
	<advance width="200"/>
	<outline>
		<contour>
			<point x="-102.47" y="0.389" type="line"/>
			<point x="97.53" y="1270.389" type="line"/>
			<point x="102.47" y="1269.611" type="line"/>
			<point x="-97.53" y="-0.389" type="line"/>
		</contour>
	</outline>
</glyph>
<glyph name="to13" format="2">
	<advance width="200"/>
	<outline>
		<contour>
			<point x="-101.09" y="1.677" type="line"/>
			<point x="98.91" y="131.677" type="line"/>
			<point x="101.09" y="128.323" type="line"/>
			<point x="-98.91" y="-1.677" type="line"/>
		</contour>
	</outline>
</glyph>
<glyph name="to14" format="2">
	<advance width="200"/>
	<outline>
		<contour>
			<point x="-101.147" y="1.638" type="line"/>
			<point x="98.853" y="141.638" type="line"/>
			<point x="101.147" y="138.362" type="line"/>
			<point x="-98.853" y="-1.638" type="line"/>
		</contour>
	</outline>
</glyph>
<glyph name="to15" format="2">
	<advance width="200"/>
	<outline>
		<contour>
			<point x="-101.2" y="1.6" type="line"/>
			<point x="98.8" y="151.6" type="line"/>
			<point x="101.2" y="148.4" type="line"/>
			<point x="-98.8" y="-1.6" type="line"/>
		</contour>
	</outline>
</glyph>
<glyph name="to18" format="2">
	<advance width="200"/>
	<outline>
		<contour>
			<point x="-101.672" y="1.858" type="line"/>
			<point x="98.328" y="181.858" type="line"/>
			<point x="101.672" y="178.142" type="line"/>
			<point x="-98.328" y="-1.858" type="line"/>
		</contour>
	</outline>
</glyph>
<glyph name="to19" format="2">
	<advance width="200"/>
	<outline>
		<contour>
			<point x="-101.722" y="1.812" type="line"/>
			<point x="98.278" y="191.812" type="line"/>
			<point x="101.722" y="188.188" type="line"/>
			<point x="-98.278" y="-1.812" type="line"/>
		</contour>
	</outline>
</glyph>
<glyph name="to2" format="2">
	<advance width="200"/>
	<outline>
		<contour>
			<point x="-100.199" y="1.99" type="line"/>
			<point x="99.801" y="21.99" type="line"/>
			<point x="100.199" y="18.01" type="line"/>
			<point x="-99.801" y="-1.99" type="line"/>
		</contour>
	</outline>
</glyph>
<glyph name="to20" format="2">
	<advance width="200"/>
	<outline>
		<contour>
			<point x="-101.414" y="1.414" type="line"/>
			<point x="98.586" y="201.414" type="line"/>
			<point x="101.414" y="198.586" type="line"/>
			<point x="-98.586" y="-1.414" type="line"/>
		</contour>
	</outline>
</glyph>
<glyph name="to21" format="2">
	<advance width="200"/>
	<outline>
		<contour>
			<point x="-101.448" y="1.379" type="line"/>
			<point x="98.552" y="211.379" type="line"/>
			<point x="101.448" y="208.621" type="line"/>
			<point x="-98.552" y="-1.379" type="line"/>
		</contour>
	</outline>
</glyph>
<glyph name="to22" format="2">
	<advance width="200"/>
	<outline>
		<contour>
			<point x="-101.48" y="1.345" type="line"/>
			<point x="98.52" y="221.345" type="line"/>
			<point x="101.48" y="218.655" type="line"/>
			<point x="-98.52" y="-1.345" type="line"/>
		</contour>
	</outline>
</glyph>
<glyph name="to23" format="2">
	<advance width="200"/>
	<outline>
		<contour>
			<point x="-101.509" y="1.312" type="line"/>
			<point x="98.491" y="231.312" type="line"/>
			<point x="101.509" y="228.688" type="line"/>
			<point x="-98.491" y="-1.312" type="line"/>
		</contour>
	</outline>
</glyph>
<glyph name="to27" format="2">
	<advance width="200"/>
	<outline>
		<contour>
			<point x="-101.607" y="1.19" type="line"/>
			<point x="98.393" y="271.19" type="line"/>
			<point x="101.607" y="268.81" type="line"/>
			<point x="-98.393" y="-1.19" type="line"/>
		</contour>
	</outline>
</glyph>
<glyph name="to28" format="2">
	<advance width="200"/>
	<outline>
		<contour>
			<point x="-101.627" y="1.162" type="line"/>
			<point x="98.373" y="281.162" type="line"/>
			<point x="101.627" y="278.838" type="line"/>
			<point x="-98.373" y="-1.162" type="line"/>
		</contour>
	</outline>
</glyph>
<glyph name="to29" format="2">
	<advance width="500"/>
	<outline>
		<contour>
			<point x="-250" y="0" type="line"/>
			<point x="250" y="290" type="line"/>
			<point x="250" y="290" type="line"/>
			<point x="-250" y="0" type="line"/>
		</contour>
	</outline>
</glyph>
<glyph name="to3" format="2">
	<advance width="200"/>
	<outline>
		<contour>
			<point x="-100.297" y="1.978" type="line"/>
			<point x="99.703" y="31.978" type="line"/>
			<point x="100.297" y="28.022" type="line"/>
			<point x="-99.703" y="-1.978" type="line"/>
		</contour>
	</outline>
</glyph>
<glyph name="to30" format="2">
	<advance width="200"/>
	<outline>
		<contour>
			<point x="-101.664" y="1.109" type="line"/>
			<point x="98.336" y="301.109" type="line"/>
			<point x="101.664" y="298.891" type="line"/>
			<point x="-98.336" y="-1.109" type="line"/>
		</contour>
	</outline>
</glyph>
<glyph name="to31" format="2">
	<advance width="200"/>
	<outline>
		<contour>
			<point x="-101.681" y="1.084" type="line"/>
			<point x="98.319" y="311.084" type="line"/>
			<point x="101.681" y="308.916" type="line"/>
			<point x="-98.319" y="-1.084" type="line"/>
		</contour>
	</outline>
</glyph>
<glyph name="to32" format="2">
	<advance width="200"/>
	<outline>
		<contour>
			<point x="-101.696" y="1.06" type="line"/>
			<point x="98.304" y="321.06" type="line"/>
			<point x="101.696" y="318.94" type="line"/>
			<point x="-98.304" y="-1.06" type="line"/>
		</contour>
	</outline>
</glyph>
<glyph name="to34" format="2">
	<advance width="200"/>
	<outline>
		<contour>
			<point x="-101.724" y="1.014" type="line"/>
			<point x="98.276" y="341.014" type="line"/>
			<point x="101.724" y="338.986" type="line"/>
			<point x="-98.276" y="-1.014" type="line"/>
		</contour>
	</outline>
</glyph>
<glyph name="to36" format="2">
	<advance width="200"/>
	<outline>
		<contour>
			<point x="-101.748" y="0.971" type="line"/>
			<point x="98.252" y="360.971" type="line"/>
			<point x="101.748" y="359.029" type="line"/>
			<point x="-98.252" y="-0.971" type="line"/>
		</contour>
	</outline>
</glyph>
<glyph name="to37" format="2">
	<advance width="500"/>
	<outline>
		<contour>
			<point x="-250" y="0" type="line"/>
			<point x="250" y="370" type="line"/>
			<point x="250" y="370" type="line"/>
			<point x="-250" y="0" type="line"/>
		</contour>
	</outline>
</glyph>
<glyph name="to38" format="2">
	<advance width="200"/>
	<outline>
		<contour>
			<point x="-101.77" y="0.931" type="line"/>
			<point x="98.23" y="380.931" type="line"/>
			<point x="101.77" y="379.069" type="line"/>
			<point x="-98.23" y="-0.931" type="line"/>
		</contour>
	</outline>
</glyph>
<glyph name="to39" format="2">
	<advance width="100"/>
	<outline>
		<contour>
			<point x="-52.422" y="0.621" type="line"/>
			<point x="47.578" y="390.621" type="line"/>
			<point x="52.422" y="389.379" type="line"/>
			<point x="-47.578" y="-0.621" type="line"/>
		</contour>
	</outline>
</glyph>
<glyph name="to4" format="2">
	<advance width="200"/>
	<outline>
		<contour>
			<point x="-100.392" y="1.961" type="line"/>
			<point x="99.608" y="41.961" type="line"/>
			<point x="100.392" y="38.039" type="line"/>
			<point x="-99.608" y="-1.961" type="line"/>
		</contour>
	</outline>
</glyph>
<glyph name="to40" format="2">
	<advance width="500"/>
	<outline>
		<contour>
			<point x="-250" y="0" type="line"/>
			<point x="250" y="400" type="line"/>
			<point x="250" y="400" type="line"/>
			<point x="-250" y="0" type="line"/>
		</contour>
	</outline>
</glyph>
<glyph name="to42" format="2">
	<advance width="200"/>
	<outline>
		<contour>
			<point x="-102.257" y="1.075" type="line"/>
			<point x="97.743" y="421.075" type="line"/>
			<point x="102.257" y="418.925" type="line"/>
			<point x="-97.743" y="-1.075" type="line"/>
		</contour>
	</outline>
</glyph>
<glyph name="to43" format="2">
	<advance width="200"/>
	<outline>
		<contour>
			<point x="-101.813" y="0.843" type="line"/>
			<point x="98.187" y="430.843" type="line"/>
			<point x="101.813" y="429.157" type="line"/>
			<point x="-98.187" y="-0.843" type="line"/>
		</contour>
	</outline>
</glyph>
<glyph name="to44" format="2">
	<advance width="200"/>
	<outline>
		<contour>
			<point x="-101.821" y="0.828" type="line"/>
			<point x="98.179" y="440.828" type="line"/>
			<point x="101.821" y="439.172" type="line"/>
			<point x="-98.179" y="-0.828" type="line"/>
		</contour>
	</outline>
</glyph>
<glyph name="to47" format="2">
	<advance width="200"/>
	<outline>
		<contour>
			<point x="-101.84" y="0.783" type="line"/>
			<point x="98.16" y="470.783" type="line"/>
			<point x="101.84" y="469.217" type="line"/>
			<point x="-98.16" y="-0.783" type="line"/>
		</contour>
	</outline>
</glyph>
<glyph name="to49" format="2">
	<advance width="200"/>
	<outline>
		<contour>
			<point x="-101.852" y="0.756" type="line"/>
			<point x="98.148" y="490.756" type="line"/>
			<point x="101.852" y="489.244" type="line"/>
			<point x="-98.148" y="-0.756" type="line"/>
		</contour>
	</outline>
</glyph>
<glyph name="to5" format="2">
	<advance width="200"/>
	<outline>
		<contour>
			<point x="-100.485" y="1.94" type="line"/>
			<point x="99.515" y="51.94" type="line"/>
			<point x="100.485" y="48.06" type="line"/>
			<point x="-99.515" y="-1.94" type="line"/>
		</contour>
	</outline>
</glyph>
<glyph name="to51" format="2">
	<advance width="200"/>
	<outline>
		<contour>
			<point x="-102.327" y="0.913" type="line"/>
			<point x="97.673" y="510.913" type="line"/>
			<point x="102.327" y="509.087" type="line"/>
			<point x="-97.673" y="-0.913" type="line"/>
		</contour>
	</outline>
</glyph>
<glyph name="to52" format="2">
	<advance width="200"/>
	<outline>
		<contour>
			<point x="-101.867" y="0.718" type="line"/>
			<point x="98.133" y="520.718" type="line"/>
			<point x="101.867" y="519.282" type="line"/>
			<point x="-98.133" y="-0.718" type="line"/>
		</contour>
	</outline>
</glyph>
<glyph name="to54" format="2">
	<advance width="100"/>
	<outline>
		<contour>
			<point x="-52.458" y="0.455" type="line"/>
			<point x="47.542" y="540.455" type="line"/>
			<point x="52.458" y="539.545" type="line"/>
			<point x="-47.542" y="-0.455" type="line"/>
		</contour>
	</outline>
</glyph>
<glyph name="to55" format="2">
	<advance width="200"/>
	<outline>
		<contour>
			<point x="-101.88" y="0.683" type="line"/>
			<point x="98.12" y="550.683" type="line"/>
			<point x="101.88" y="549.317" type="line"/>
			<point x="-98.12" y="-0.683" type="line"/>
		</contour>
	</outline>
</glyph>
<glyph name="to56" format="2">
	<advance width="200"/>
	<outline>
		<contour>
			<point x="-101.883" y="0.673" type="line"/>
			<point x="98.117" y="560.673" type="line"/>
			<point x="101.883" y="559.327" type="line"/>
			<point x="-98.117" y="-0.673" type="line"/>
		</contour>
	</outline>
</glyph>
<glyph name="to58" format="2">
	<advance width="200"/>
	<outline>
		<contour>
			<point x="-102.363" y="0.815" type="line"/>
			<point x="97.637" y="580.815" type="line"/>
			<point x="102.363" y="579.185" type="line"/>
			<point x="-97.637" y="-0.815" type="line"/>
		</contour>
	</outline>
</glyph>
<glyph name="to59" format="2">
	<advance width="200"/>
	<outline>
		<contour>
			<point x="-101.894" y="0.642" type="line"/>
			<point x="98.106" y="590.642" type="line"/>
			<point x="101.894" y="589.358" type="line"/>
			<point x="-98.106" y="-0.642" type="line"/>
		</contour>
	</outline>
</glyph>
<glyph name="to61" format="2">
	<advance width="200"/>
	<outline>
		<contour>
			<point x="-102.376" y="0.779" type="line"/>
			<point x="97.624" y="610.779" type="line"/>
			<point x="102.376" y="609.221" type="line"/>
			<point x="-97.624" y="-0.779" type="line"/>
		</contour>
	</outline>
</glyph>
<glyph name="to62" format="2">
	<advance width="200"/>
	<outline>
		<contour>
			<point x="-102.379" y="0.768" type="line"/>
			<point x="97.621" y="620.768" type="line"/>
			<point x="102.379" y="619.232" type="line"/>
			<point x="-97.621" y="-0.768" type="line"/>
		</contour>
	</outline>
</glyph>
<glyph name="to63" format="2">
	<advance width="200"/>
	<outline>
		<contour>
			<point x="-101.906" y="0.605" type="line"/>
			<point x="98.094" y="630.605" type="line"/>
			<point x="101.906" y="629.395" type="line"/>
			<point x="-98.094" y="-0.605" type="line"/>
		</contour>
	</outline>
</glyph>
<glyph name="to64" format="2">
	<advance width="200"/>
	<outline>
		<contour>
			<point x="-101.909" y="0.597" type="line"/>
			<point x="98.091" y="640.597" type="line"/>
			<point x="101.909" y="639.403" type="line"/>
			<point x="-98.091" y="-0.597" type="line"/>
		</contour>
	</outline>
</glyph>
<glyph name="to65" format="2">
	<advance width="200"/>
	<outline>
		<contour>
			<point x="-102.389" y="0.735" type="line"/>
			<point x="97.611" y="650.735" type="line"/>
			<point x="102.389" y="649.265" type="line"/>
			<point x="-97.611" y="-0.735" type="line"/>
		</contour>
	</outline>
</glyph>
<glyph name="to67" format="2">
	<advance width="200"/>
	<outline>
		<contour>
			<point x="-101.916" y="0.572" type="line"/>
			<point x="98.084" y="670.572" type="line"/>
			<point x="101.916" y="669.428" type="line"/>
			<point x="-98.084" y="-0.572" type="line"/>
		</contour>
	</outline>
</glyph>
<glyph name="to68" format="2">
	<advance width="200"/>
	<outline>
		<contour>
			<point x="-102.398" y="0.705" type="line"/>
			<point x="97.602" y="680.705" type="line"/>
			<point x="102.398" y="679.295" type="line"/>
			<point x="-97.602" y="-0.705" type="line"/>
		</contour>
	</outline>
</glyph>
<glyph name="to70" format="2">
	<advance width="200"/>
	<outline>
		<contour>
			<point x="-101.923" y="0.549" type="line"/>
			<point x="98.077" y="700.549" type="line"/>
			<point x="101.923" y="699.451" type="line"/>
			<point x="-98.077" y="-0.549" type="line"/>
		</contour>
	</outline>
</glyph>
<glyph name="to71" format="2">
	<advance width="200"/>
	<outline>
		<contour>
			<point x="-102.406" y="0.678" type="line"/>
			<point x="97.594" y="710.678" type="line"/>
			<point x="102.406" y="709.322" type="line"/>
			<point x="-97.594" y="-0.678" type="line"/>
		</contour>
	</outline>
</glyph>
<glyph name="to72" format="2">
	<advance width="200"/>
	<outline>
		<contour>
			<point x="-101.927" y="0.535" type="line"/>
			<point x="98.073" y="720.535" type="line"/>
			<point x="101.927" y="719.465" type="line"/>
			<point x="-98.073" y="-0.535" type="line"/>
		</contour>
	</outline>
</glyph>
<glyph name="to73" format="2">
	<advance width="200"/>
	<outline>
		<contour>
			<point x="-101.929" y="0.528" type="line"/>
			<point x="98.071" y="730.528" type="line"/>
			<point x="101.929" y="729.472" type="line"/>
			<point x="-98.071" y="-0.528" type="line"/>
		</contour>
	</outline>
</glyph>
<glyph name="to75" format="2">
	<advance width="200"/>
	<outline>
		<contour>
			<point x="-101.932" y="0.515" type="line"/>
			<point x="98.068" y="750.515" type="line"/>
			<point x="101.932" y="749.485" type="line"/>
			<point x="-98.068" y="-0.515" type="line"/>
		</contour>
	</outline>
</glyph>
<glyph name="to79" format="2">
	<advance width="200"/>
	<outline>
		<contour>
			<point x="-101.939" y="0.491" type="line"/>
			<point x="98.061" y="790.491" type="line"/>
			<point x="101.939" y="789.509" type="line"/>
			<point x="-98.061" y="-0.491" type="line"/>
		</contour>
	</outline>
</glyph>
<glyph name="to8" format="2">
	<advance width="200"/>
	<outline>
		<contour>
			<point x="-100.928" y="2.321" type="line"/>
			<point x="99.072" y="82.321" type="line"/>
			<point x="100.928" y="77.679" type="line"/>
			<point x="-99.072" y="-2.321" type="line"/>
		</contour>
	</outline>
</glyph>
<glyph name="to80" format="2">
	<advance width="200"/>
	<outline>
		<contour>
			<point x="-101.94" y="0.485" type="line"/>
			<point x="98.06" y="800.485" type="line"/>
			<point x="101.94" y="799.515" type="line"/>
			<point x="-98.06" y="-0.485" type="line"/>
		</contour>
	</outline>
</glyph>
<glyph name="to82" format="2">
	<advance width="200"/>
	<outline>
		<contour>
			<point x="-101.943" y="0.474" type="line"/>
			<point x="98.057" y="820.474" type="line"/>
			<point x="101.943" y="819.526" type="line"/>
			<point x="-98.057" y="-0.474" type="line"/>
		</contour>
	</outline>
</glyph>
<glyph name="to83" format="2">
	<advance width="200"/>
	<outline>
		<contour>
			<point x="-102.43" y="0.586" type="line"/>
			<point x="97.57" y="830.586" type="line"/>
			<point x="102.43" y="829.414" type="line"/>
			<point x="-97.57" y="-0.586" type="line"/>
		</contour>
	</outline>
</glyph>
<glyph name="to84" format="2">
	<advance width="200"/>
	<outline>
		<contour>
			<point x="-102.432" y="0.579" type="line"/>
			<point x="97.568" y="840.579" type="line"/>
			<point x="102.432" y="839.421" type="line"/>
			<point x="-97.568" y="-0.579" type="line"/>
		</contour>
	</outline>
</glyph>
<glyph name="to85" format="2">
	<advance width="200"/>
	<outline>
		<contour>
			<point x="-101.947" y="0.458" type="line"/>
			<point x="98.053" y="850.458" type="line"/>
			<point x="101.947" y="849.542" type="line"/>
			<point x="-98.053" y="-0.458" type="line"/>
		</contour>
	</outline>
</glyph>
<glyph name="to86" format="2">
	<advance width="200"/>
	<outline>
		<contour>
			<point x="-101.948" y="0.453" type="line"/>
			<point x="98.052" y="860.453" type="line"/>
			<point x="101.948" y="859.547" type="line"/>
			<point x="-98.052" y="-0.453" type="line"/>
		</contour>
	</outline>
</glyph>
<glyph name="to87" format="2">
	<advance width="500"/>
	<outline>
		<contour>
			<point x="-250" y="0" type="line"/>
			<point x="250" y="870" type="line"/>
			<point x="250" y="870" type="line"/>
			<point x="-250" y="0" type="line"/>
		</contour>
	</outline>
</glyph>
<glyph name="to88" format="2">
	<advance width="500"/>
	<outline>
		<contour>
			<point x="-250" y="0" type="line"/>
			<point x="250" y="880" type="line"/>
			<point x="250" y="880" type="line"/>
			<point x="-250" y="0" type="line"/>
		</contour>
	</outline>
</glyph>
<glyph name="to89" format="2">
	<advance width="200"/>
	<outline>
		<contour>
			<point x="-101.951" y="0.439" type="line"/>
			<point x="98.049" y="890.439" type="line"/>
			<point x="101.951" y="889.561" type="line"/>
			<point x="-98.049" y="-0.439" type="line"/>
		</contour>
	</outline>
</glyph>
<glyph name="to90" format="2">
	<advance width="200"/>
	<outline>
		<contour>
			<point x="-101.952" y="0.434" type="line"/>
			<point x="98.048" y="900.434" type="line"/>
			<point x="101.952" y="899.566" type="line"/>
			<point x="-98.048" y="-0.434" type="line"/>
		</contour>
	</outline>
</glyph>
<glyph name="to92" format="2">
	<advance width="100"/>
	<outline>
		<contour>
			<point x="-52.485" y="0.27" type="line"/>
			<point x="47.515" y="920.27" type="line"/>
			<point x="52.485" y="919.73" type="line"/>
			<point x="-47.515" y="-0.27" type="line"/>
		</contour>
	</outline>
</glyph>
<glyph name="to93" format="2">
	<advance width="200"/>
	<outline>
		<contour>
			<point x="-101.955" y="0.42" type="line"/>
			<point x="98.045" y="930.42" type="line"/>
			<point x="101.955" y="929.58" type="line"/>
			<point x="-98.045" y="-0.42" type="line"/>
		</contour>
	</outline>
</glyph>
<glyph name="to94" format="2">
	<advance width="200"/>
	<outline>
		<contour>
			<point x="-101.956" y="0.416" type="line"/>
			<point x="98.044" y="940.416" type="line"/>
			<point x="101.956" y="939.584" type="line"/>
			<point x="-98.044" y="-0.416" type="line"/>
		</contour>
	</outline>
</glyph>
<glyph name="to95" format="2">
	<advance width="500"/>
	<outline>
		<contour>
			<point x="-250" y="0" type="line"/>
			<point x="250" y="950" type="line"/>
			<point x="250" y="950" type="line"/>
			<point x="-250" y="0" type="line"/>
		</contour>
	</outline>
</glyph>
<glyph name="to96" format="2">
	<advance width="200"/>
	<outline>
		<contour>
			<point x="-102.447" y="0.51" type="line"/>
			<point x="97.553" y="960.51" type="line"/>
			<point x="102.447" y="959.49" type="line"/>
			<point x="-97.553" y="-0.51" type="line"/>
		</contour>
	</outline>
</glyph>
<glyph name="to98" format="2">
	<advance width="500"/>
	<outline>
		<contour>
			<point x="-250" y="0" type="line"/>
			<point x="250" y="980" type="line"/>
			<point x="250" y="980" type="line"/>
			<point x="-250" y="0" type="line"/>
		</contour>
	</outline>
</glyph>
<glyph name="to99" format="2">
	<advance width="200"/>
	<outline>
		<contour>
			<point x="-101.96" y="0.396" type="line"/>
			<point x="98.04" y="990.396" type="line"/>
			<point x="101.96" y="989.604" type="line"/>
			<point x="-98.04" y="-0.396" type="line"/>
		</contour>
	</outline>
</glyph>
